<svg id="Layer_1" data-name="Layer 1" xmlns="http://www.w3.org/2000/svg" width="180" height="60" viewBox="0 0 180 60"><title>nyc-generic-180x60</title><polygon points="176.25 26.204 180 22.5 180 11.251 168.75 0 131.25 0 120.001 11.251 120.001 3.75 116.25 0 101.25 0 97.5 3.75 97.5 11.251 90.001 18.75 82.5 11.251 82.5 3.75 78.75 0 63.75 0 60.001 3.75 56.25 0 41.25 0 37.501 3.75 37.501 18.75 18.751 0 3.751 0 0 3.75 0 56.25 3.751 60 18.751 60 22.501 56.25 22.501 41.25 41.25 60 56.25 60 60.001 56.25 60.001 26.25 78.75 45 78.75 56.25 82.5 60 97.5 60 101.25 56.25 101.25 45 120.001 26.25 120.001 48.751 131.25 60 168.75 60 180 48.751 180 37.5 176.25 33.745 157.5 33.745 157.5 37.5 142.5 37.5 142.5 22.5 157.5 22.5 157.5 26.204 176.25 26.204"/><path d="M177.32981,2.5304c.3495,0,.65757-.03335.65757-.44445,0-.34343-.33634-.38486-.61614-.38486h-.56365V2.5304Zm-.52222,1.61111h-.46566V1.30412h1.07678c.68584,0,1.03433.23939,1.03433.81516a.72555.72555,0,0,1-.73939.77576l.795,1.24647h-.52829L177.247,2.92836h-.43939Zm.5081-3.58486a1.99063,1.99063,0,0,0-1.97477,2.1182,1.97357,1.97357,0,1,0,3.93637,0,1.98825,1.98825,0,0,0-1.9616-2.1182m0,4.68282a2.46874,2.46874,0,0,1-2.52427-2.56462,2.51762,2.51762,0,1,1,5.03436,0,2.48592,2.48592,0,0,1-2.51009,2.56462"/></svg>