<svg xmlns="http://www.w3.org/2000/svg" width="400" height="300" viewBox="0 0 400 300">
  <title>color-contrast-fail</title>
  <rect width="400" height="300" fill="#25caa4"/>
  <g>
    <g>
      <path d="M159.498,161.0366h-48l-9.6005,37.2007H65.8965L115.0977,41.7539h42.2412L206.54,198.2373H169.1Zm-7.1992-27.6006-3.84-14.4c-4.32-15.6-8.4-34.081-12.7207-50.4013h-.96c-3.6006,16.5605-7.9209,34.8008-12.24,50.4013l-3.8408,14.4Z" fill="#fff"/>
      <path d="M282.8574,121.6758c-.7187-10.5606-6-17.2808-18.72-17.2808-10.0811,0-20.1611,4.08-31.6807,10.8l-12.48-23.28c15.12-9.1206,32.16-15.6005,50.8808-15.6005,30.4805,0,47.2813,17.28,47.2813,53.7612v68.1616H289.3379l-2.64-12.24h-.72c-10.08,8.88-21.3613,15.12-34.8008,15.12-21.6015,0-35.2812-15.84-35.2812-36C215.8965,140.1558,235.8164,126.4756,282.8574,121.6758Zm-19.68,52.081c8.16,0,13.44-3.84,19.68-10.08V142.7959c-25.2,3.36-33.36,10.5605-33.36,19.6807C249.4971,170.1567,254.7773,173.7568,263.1777,173.7568Z" fill="#fff"/>
    </g>
    <g>
      <path d="M122.835,256.7119c5.831-5.5073,9.9345-9.4311,9.9345-12.67,0-2.2319-1.26-3.4556-3.24-3.4556-1.6553,0-2.915,1.1158-4.0664,2.3394l-2.88-2.8433c2.2676-2.4121,4.3916-3.6357,7.667-3.6357,4.499,0,7.5586,2.8794,7.5586,7.271,0,3.8515-3.6,7.9551-7.3066,11.8428a35.3145,35.3145,0,0,1,3.8154-.2881h4.6074v4.4634h-16.09Z" fill="#262345"/>
      <path d="M145.91,253.5083a3.3321,3.3321,0,1,1-3.2032,3.3472A3.2,3.2,0,0,1,145.91,253.5083Z" fill="#262345"/>
      <path d="M152.6426,248.2168c0-7.7749,3.2754-11.77,8.1709-11.77s8.1709,3.9956,8.1709,11.77-3.2754,11.9507-8.1709,11.9507S152.6426,255.9917,152.6426,248.2168Zm11.3379,0c0-6.2632-1.3672-7.667-3.167-7.667-1.7637,0-3.168,1.4038-3.168,7.667,0,6.227,1.4043,7.8472,3.168,7.8472C162.6133,256.064,163.9805,254.4438,163.9805,248.2168Z" fill="#262345"/>
      <path d="M174.6738,254.2642a5.0855,5.0855,0,0,0,3.5274,1.62c2.5556,0,4.5351-1.8,4.7158-7.127a6.4327,6.4327,0,0,1-4.5713,2.4117c-3.8877,0-6.8037-2.232-6.8037-7.0552a7.3515,7.3515,0,0,1,7.5947-7.667c4.4278,0,8.6758,3.3115,8.6758,11.3384,0,8.5312-4.4639,12.3828-9.251,12.3828a9.311,9.311,0,0,1-6.6953-2.7359Zm8.1348-9.107c-.4678-3.6-1.9434-4.7514-3.5635-4.7514-1.5478,0-2.88,1.1157-2.88,3.7075,0,2.4116,1.2969,3.3115,3.0235,3.3115A4.0482,4.0482,0,0,0,182.8086,245.1572Z" fill="#262345"/>
      <path d="M199.4062,249.7285a30.26,30.26,0,0,1,4.751-16.45l3.3116,1.3677a31.9834,31.9834,0,0,0,0,30.164l-3.3116,1.3682A30.2612,30.2612,0,0,1,199.4062,249.7285Z" fill="#262345"/>
      <path d="M211.9336,236.2661h14.83V240.73h-9.503v5.4355h8.0987v4.4634h-8.0987v9.107h-5.3271Z" fill="#262345"/>
      <path d="M238.3926,248.2529a2.4856,2.4856,0,0,0-2.8086-2.5918,9.6052,9.6052,0,0,0-4.751,1.62l-1.8721-3.4912a14.7575,14.7575,0,0,1,7.6309-2.34c4.5723,0,7.0918,2.5918,7.0918,8.063v10.2227h-4.3193l-.3955-1.836H238.86a7.8584,7.8584,0,0,1-5.22,2.2681,5.1307,5.1307,0,0,1-5.291-5.3994C228.35,251.0244,231.3369,248.9727,238.3926,248.2529ZM235.44,256.064a3.9784,3.9784,0,0,0,2.9522-1.5122V251.42c-3.7793.5039-5.0039,1.584-5.0039,2.9517C233.3887,255.5239,234.1807,256.064,235.44,256.064Z" fill="#262345"/>
      <path d="M247.7891,236.4824a3.0745,3.0745,0,1,1,3.06,2.7715A2.8,2.8,0,0,1,247.7891,236.4824Zm.4316,5.3994h5.291v17.8536h-5.291Z" fill="#262345"/>
      <path d="M258.1562,234.5024h5.2911v19.9058c0,1.1157.5039,1.4756.9365,1.4756a2.2209,2.2209,0,0,0,.6474-.0718l.6485,3.9234a6.9036,6.9036,0,0,1-2.6641.4321c-3.6347,0-4.8594-2.376-4.8594-5.9756Z" fill="#262345"/>
      <path d="M271.6562,249.7285a30.516,30.516,0,0,0-3.8154-15.082l3.3115-1.3677a30.8538,30.8538,0,0,1,0,32.9l-3.3115-1.3682A30.516,30.516,0,0,0,271.6562,249.7285Z" fill="#262345"/>
    </g>
  </g>
</svg>
