<svg xmlns="http://www.w3.org/2000/svg" width="120" height="40" viewBox="0 0 120 40">
  <title>nyc-bubble-logo</title>
  <g>
    <polygon points="117.83 17.47 120.33 15 120.33 7.5 112.83 0 87.83 0 80.33 7.5 80.33 2.5 77.83 0 67.83 0 65.33 2.5 65.33 7.5 60.33 12.5 55.33 7.5 55.33 2.5 52.83 0 42.83 0 40.33 2.5 37.83 0 27.83 0 25.33 2.5 25.33 12.5 12.83 0 2.83 0 0.33 2.5 0.33 37.5 2.83 40 12.83 40 15.33 37.5 15.33 27.5 27.83 40 37.83 40 40.33 37.5 40.33 17.5 52.83 30 52.83 37.5 55.33 40 65.33 40 67.83 37.5 67.83 30 80.33 17.5 80.33 32.5 87.83 40 112.83 40 120.33 32.5 120.33 25 117.83 22.5 105.33 22.5 105.33 25 95.33 25 95.33 15 105.33 15 105.33 17.47 117.83 17.47"/>
    <path d="M118.55,1.69c.24,0,.44,0,.44-.3s-.22-.26-.41-.26h-.37v.56Zm-.34,1.07h-.32V.87h.72c.46,0,.69.16.69.54a.48.48,0,0,1-.45.52h0l.53.83H119L118.5,2h-.29Zm.33-2.39a1.34,1.34,0,0,0-1.32,1.34s0,.05,0,.07a1.31,1.31,0,0,0,2.62.2.67.67,0,0,0,0-.2A1.32,1.32,0,0,0,118.62.37h-.08m0,3.12a1.65,1.65,0,0,1-1.68-1.6V1.78a1.68,1.68,0,1,1,3.36-.06v.06a1.66,1.66,0,0,1-1.61,1.71h-.07"/>
  </g>
</svg>
