<svg xmlns="http://www.w3.org/2000/svg" width="200" height="80" viewBox="0 0 200 80">
  <g>
    <polygon points="141.25 10 130.001 21.25 130.001 13.75 126.25 10 111.25 10 107.5 13.75 107.5 21.25 100.001 28.75 92.5 21.25 92.5 13.75 88.75 10 73.75 10 70.001 13.75 66.25 10 51.25 10 47.501 13.75 47.501 28.75 28.751 10 13.751 10 10 13.75 10 66.25 13.751 70 28.751 70 32.501 66.25 32.501 51.25 51.25 70 66.25 70 70.001 66.25 70.001 36.25 88.75 55 88.75 66.25 92.5 70 107.5 70 111.25 66.25 111.25 55 130.001 36.25 130.001 58.75 141.25 70 178.75 70 190 58.75 190 47.5 186.25 43 167.5 43 167.5 47.5 152.5 47.5 152.5 32.5 167.5 32.5 167.5 37 186.25 37 190 32.5 190 21.25 178.75 10 141.25 10"/>
    <path d="M186.9816,12.8181h.44l.7331,1.2131h.5284l-.7947-1.2465a.7252.7252,0,0,0,.7392-.7755c0-.5755-.3484-.8152-1.0343-.8152h-1.077v2.8372h.4658Zm0-1.2273h.5636c.28,0,.6165.0416.6165.3851,0,.4114-.3082.4443-.6577.4443h-.5224Z"/>
    <path d="M187.49,15.1292A2.4859,2.4859,0,0,0,190,12.5646a2.5176,2.5176,0,1,0-5.0343,0A2.4683,2.4683,0,0,0,187.49,15.1292Zm0-4.6826a1.9883,1.9883,0,0,1,1.9617,2.118,1.9736,1.9736,0,1,1-3.9364,0A1.9906,1.9906,0,0,1,187.49,10.4466Z"/>
  </g>
</svg>
