<svg id="Artwork" xmlns="http://www.w3.org/2000/svg" width="48" height="48" viewBox="0 0 48 48"><defs><style>.cls-1{fill:#fff;}.cls-2{fill:#4dc8f1;}</style></defs><title>btn-twitter-reverse</title><rect class="cls-1" width="48" height="48"/><path class="cls-2" d="M13.29,32.64A13.79,13.79,0,0,0,34.5,20.39a9.83,9.83,0,0,0,2.42-2.51,9.69,9.69,0,0,1-2.78.76A4.86,4.86,0,0,0,36.27,16a9.72015,9.72015,0,0,1-3.08,1.18,4.85,4.85,0,0,0-8.26,4.42,13.76,13.76,0,0,1-10-5.07A4.85,4.85,0,0,0,16.44,23a4.83008,4.83008,0,0,1-2.2-.61,4.85,4.85,0,0,0,3.89,4.82,4.85,4.85,0,0,1-2.19.08,4.85,4.85,0,0,0,4.53,3.37A9.74,9.74,0,0,1,13.29,32.64Z"/></svg>