<svg id="Artwork" xmlns="http://www.w3.org/2000/svg" width="48" height="48" viewBox="0 0 48 48"><defs><style>.cls-1{fill:#0274b3;}.cls-2{fill:#fff;}</style></defs><title>btn-linkedin</title><rect class="cls-1" width="48" height="48"/><path class="cls-2" d="M25.55,21.73l.2-.21a6.24,6.24,0,0,1,6.67-2.67,6.53,6.53,0,0,1,5.6,6,15.6495,15.6495,0,0,1,.17,2.37v9.93c0,.37-.09.48-.47.48H32.51c-.37,0-.48-.11-.48-.48V27.8a7.43987,7.43987,0,0,0-.25-2.08,3,3,0,0,0-4.88-1.49,3.67,3.67,0,0,0-1.33,3v9.89c0,.39-.11.4-.41.39H19.81c-.32,0-.44,0-.43-.41V19.56c0-.36.07-.45.44-.45h5.33c.32,0,.41.09.4.4C25.53,20.28,25.55,20.95,25.55,21.73Z"/><path class="cls-2" d="M16,28.44v8.73c0,.36-.07.49-.47.48H10.28c-.32,0-.44-.08-.44-.43V19.6c0-.31.08-.41.4-.4h5.33c.36,0,.41.12.41.44C16,22.59,16,25.51,16,28.44Z"/><path class="cls-2" d="M13,10.33a3.2,3.2,0,0,1,3.32,4,3.41,3.41,0,0,1-4.09,2.28A3.16,3.16,0,0,1,9.75,12.3,3.31,3.31,0,0,1,13,10.33Z"/></svg>