<svg id="Artwork" xmlns="http://www.w3.org/2000/svg" width="60" height="30" viewBox="0 0 60 30"><title>btn-menu</title><path d="M6.21033,29.87668v-4.8045H6.17087L4.23723,29.80762H3.3L1.36637,25.07218H1.32691v4.8045H0v-7.118H1.72646l2.02243,5.04621h.03946l2.02243-5.04621H7.53724v7.118Z"/><path d="M14.12993,29.87668H9.41422v-7.118h4.71571V23.987h-3.226v1.71659h3.04351V26.848H10.90391v1.79552h3.226Z"/><path d="M16.0242,29.87668v-7.118h1.24306l3.32467,4.63679h.03946V22.75872H22.057v7.118H20.82377l-3.32961-4.66145h-.04439v4.66145Z"/><path d="M25.526,27.213a1.49225,1.49225,0,1,0,2.98431,0V22.75872H30V27.361C30,28.92959,28.8408,30,27.02062,30c-1.82512,0-2.98431-1.07041-2.98431-2.639V22.75872H25.526Z"/><rect x="0.02266" y="0.54594" width="30" height="3"/><rect x="0.02266" y="8.04594" width="30" height="3"/><rect x="0.02266" y="15.54594" width="30" height="3"/><path d="M36.21033,29.87668v-4.8045h-.03946l-1.93364,4.73544H33.3l-1.93364-4.73544h-.03946v4.8045H30v-7.118h1.72646l2.02243,5.04621h.03946l2.02243-5.04621h1.72646v7.118Z"/><path d="M44.12993,29.87668H39.41422v-7.118h4.71571V23.987h-3.226v1.71659h3.04351V26.848H40.90391v1.79552h3.226Z"/><path d="M46.0242,29.87668v-7.118h1.24306l3.32467,4.63679h.03946V22.75872H52.057v7.118H50.82377l-3.32961-4.66145h-.04439v4.66145Z"/><path d="M55.526,27.213a1.49225,1.49225,0,1,0,2.98431,0V22.75872H60V27.361C60,28.92959,58.8408,30,57.02062,30c-1.82512,0-2.98431-1.07041-2.98431-2.639V22.75872H55.526Z"/><rect x="32.47671" y="8.04594" width="24" height="3" transform="translate(6.27693 34.24573) rotate(-45)"/><rect x="32.47671" y="8.04594" width="24" height="3" transform="translate(69.1765 47.74573) rotate(-135)"/></svg>