<svg xmlns="http://www.w3.org/2000/svg" width="160" height="35" viewBox="0 0 160 35">
  <title>Carl Avidano Logo</title>
  <g>
    <path d="M51.959,2.7585c-4.53,4.9313-7.71,13.3782-7.1637,20.1016.0268.3295.07.6653.1242,1.0041-2.64,1.3962-5.7252,1.8594-7.2035-1.2008a1.0939,1.0939,0,0,0-1.884,0c-.9116,1.7629-2.3284,4.0139-4.59,4.1037-2.0512.0814-3.0947-1.6833-3.1762-3.5482a1.1312,1.1312,0,0,0-.2875-.7407c.5626-.61.0779-1.935-.8421-1.8411-2.3225.2371-7.6715,2.3773-9.4661,5.2556A33.7808,33.7808,0,0,1,7.4757,30.58c-8.9628,2.108-4.0425-6.9007-1.2786-10.2377A54.3557,54.3557,0,0,1,21.75,7.5566a23.3768,23.3768,0,0,1,8.58-3.1156c2.3124-.2371,2.3254,1.0118.849,2.6675a32.067,32.067,0,0,1-6.3605,5.1958c-1.17.7724-.0778,2.6768,1.1013,1.8983,2.0729-1.3687,14.73-11.3872,6.0337-12.0065C25.8261,1.76,19.3149,6.081,14.6375,9.543,9.4333,13.3948,3.839,18.2677.9691,24.2385c-1.7872,3.7183-1.3678,8.197,3.5166,8.7791,3.8527.4591,7.8752-1.8068,11.1225-3.6043.4627-.256.9215-.52,1.3788-.7887a4.2734,4.2734,0,0,0,1.0157,1.7222c3.0247,3.2971,6.5749-.7407,8.6048-4.088a4.8223,4.8223,0,0,0,3.7159,2.9148c2.8448.4018,5.0408-1.8486,6.5351-3.7408A8.2655,8.2655,0,0,0,42.76,27.2275a8.3583,8.3583,0,0,0,2.812-.8029c1.6038,4.6644,5.4752,9.1139,10.5967,8.5223,1.3788-.1592,1.3948-2.3616,0-2.2-4.42.5105-7.4674-3.4249-8.67-7.5083a23.2759,23.2759,0,0,0,3.9-3.979,69.8694,69.8694,0,0,0,6.4687-9.5639c1.3415-2.3847,3.066-5.4088,3.0991-8.2443C61.0327-2.1677,54.2966.2137,51.959,2.7585Zm-31.9,26.31c-.9238-.4415-.8545-1.2443-.4236-2.0447,1.9771-1.2154,3.9558-2.4335,6.02-3.4738C24.7366,25.6137,22.3572,30.167,20.0594,29.0688ZM58.4,5.2844a31.883,31.883,0,0,1-3.9458,7.7963,58.6094,58.6094,0,0,1-5.827,7.9555,12.465,12.465,0,0,1-1.6433,1.4986,11.4988,11.4988,0,0,1-.0546-1.2443c.1141-5.8622,2.8058-13.5041,7.1236-17.5657.8757-.8238,2.4862-2.1276,3.7874-1.5941C59.194,2.6859,58.7442,4.0855,58.4,5.2844Z"/>
    <path d="M117.7885,8.0723c.7437-.443.03-1.75-1.4249-1.75S115.5242,9.4212,117.7885,8.0723Z"/>
    <path d="M152.6333,23.2929c-.4415,1.3554,1.6429,1.9368,2.082.589.9559-2.9343,3.84.3895,2.8711,2.426a3.6967,3.6967,0,0,1-2.2823,1.7585c-2.73.7415-4.2994-1.5709-4.3043-4.1581-.0019-1.0152-1.5746-1.6193-2.0117-.5592-.352.8538-.5653,2.1613-1.5791,2.3392-1.07.1879-.7095-1.0878-.6432-2.0736.071-1.0551-1.185-1.3307-1.8429-.7834a20.8339,20.8339,0,0,1-4.7362,3.2478c.9615-2.6992-.258-6.1-3.5019-6.1958-3.514-.1039-7.6942,4.33-4.1618,7.3128.0877.074.1886.1289.2811.1961a4.8883,4.8883,0,0,1-.7129-.1067c-1.1493-.284-1.9861-.8144-3.1176-.7343-1.7453.1236-2.3608,1.3843-4.4035.3923a3.6852,3.6852,0,0,1-1.4294-1.0722c.4763-.6371.899-1.2731,1.2516-1.8321,2.4555-3.8936,4.9052-9.0537,5.1176-13.7761.1251-2.7815-1.644-5.153-4.5294-3.5426-3.5638,1.9888-4.0382,8.3306-4.3835,11.9191a23.0025,23.0025,0,0,0,.0674,6.8251c-.8873,1.0138-2.1934,2.33-3.5266,1.6742-2.71-1.3326,1.2315-5.1925,2.2913-6.1962a1.1034,1.1034,0,0,0-1.3082-1.74c-.5744.3373-8.5583,4.3107-8.7693,1.6273a1.0813,1.0813,0,0,0-2.1206-.2945c-.3272,1.2363-1.7528,7.53-3.3735,6.3362-1.07-.7882-.9079-3.928-.8814-5.0734a1.0886,1.0886,0,0,0-1.8429-.7834c-2.6641,2.4319-5.426,5.5192-8.8351,6.8258-3.3739,1.2931-3.6185-2.4918-2.968-6.7963.38-.7893.7424-1.5859,1.0727-2.3913.8656-2.11,2.6461-6.02,1.1988-8.27a1.0834,1.0834,0,0,0-1.9731.2647,77.8633,77.8633,0,0,0-2.4742,9.9152,34.5874,34.5874,0,0,1-5.5625,8.19c-2.249,2.395-5.602,5.1205-9.0469,3.7878-3.806-1.4723-4.3826-5.4817-3.1683-8.9875C72.124,15.6217,80.06,8.8064,86.99,4.7954c2.7611-1.5978,8.845-4.8733,9.2518.5321.3054,4.059-2.0618,8.9224-4.4208,12.0353-.843,1.1124.6743,2.6915,1.5266,1.5667,2.6824-3.54,9.0462-15.879,2.2246-18.58-3.076-1.2181-7.0666,1.0258-9.6719,2.5332a50.9944,50.9944,0,0,0-10.897,8.6491C70.668,15.9992,63.5929,24.5579,67.74,31.2537c4.1886,6.7621,11.7283,3.1757,15.84-1.4412a35.2287,35.2287,0,0,0,3.253-4.3047c.1888,2.956,1.3131,5.1009,4.2868,4.9064,3.6275-.2372,6.9788-3.4462,9.7745-6.1526.2021,2.1879.8507,4.6595,2.7425,5.2,2.7526.7868,4.2669-3.1749,5.0846-6.0688,1.5836.8086,4.1222.3268,6.3636-.4393-1.31,2.3057-1.7956,4.918,1.032,6.2566,2.0289.96,3.8992-.0111,5.4371-1.5037a4.663,4.663,0,0,0,3.5465,2.1125,8.833,8.833,0,0,0,3.3148-.4665c1.6263-.3757,2.6346.0773,4.3183.305a7.9741,7.9741,0,0,0,5.4595-1.05c.4162-.0207.8249-.0514,1.2085-.0978a9.6509,9.6509,0,0,0,5.2583-2.5926,2.911,2.911,0,0,0,1.8765,2.7066c1.3088.3633,2.3041-.4975,3.0436-1.6076,1.8694,3.7093,6.8626,5.0656,9.6834.6889C162.3909,22.8527,154.6716,17.036,152.6333,23.2929Zm-29.2071-9.0317c.28-1.27,2.7564-8.2085,3.9385-4.7893.72,2.0824-1.3206,6.2853-2.1048,8.1517a35.4359,35.4359,0,0,1-2.7267,5.3241A34.7367,34.7367,0,0,1,123.4262,14.2612Zm11.244,8.4645c1.2143-1.0111,1.9827-.59,2.87.4891,1.36,1.6538.7737,2.7607-.4637,3.4248a5.09,5.09,0,0,1-1.8-.5245C133.5233,25.23,133.4452,23.7456,134.67,22.7257Z"/>
  </g>
</svg>
