<svg id="Layer_1" data-name="Layer 1" xmlns="http://www.w3.org/2000/svg" width="100" height="100" viewBox="0 0 100 100">
  <title>logo-font-awesome</title>
  <path d="M100,0H0V100H100ZM78.66071,63.45982c0,.9375-.80357,1.33929-1.74106,1.74108-3.72769,1.60713-7.72322,3.058-12.00893,3.058-6.00447,0-8.79465-3.72768-16.00447-3.72768-5.20089,0-10.66964,1.875-15.067,3.8616-.26786.13394-.53572.13394-.80358.26786V78.79464a2.61085,2.61085,0,0,1-.13393,1.07143v.26786c-.94262,3.29919-5.61713,4.87066-8.79464.57991V30a7.45766,7.45766,0,1,1,12.03125-5.87054A7.11147,7.11147,0,0,1,33.21429,30v4.12946a4.75678,4.75678,0,0,0,1.20535-.53571,36.77654,36.77654,0,0,1,13.72768-3.192c5.067,0,9.0625,1.33928,13.59375,3.058a7.17,7.17,0,0,0,2.92411.53572c5.067,0,10.66964-3.59375,12.00893-3.59375A1.93123,1.93123,0,0,1,78.683,32.14286v31.317Z" fill="#6098ec"/>
</svg>
