<svg id="Layer_1" data-name="Layer 1" xmlns="http://www.w3.org/2000/svg" width="100" height="100" viewBox="0 0 100 100">
  <title>logo-bootstrap</title>
  <g id="solid">
    <path id="bg" d="M100,0V100H0V0Z" fill="#401f7c"/>
    <g id="B" style="isolation: isolate">
      <path d="M27.2374,22.5H53.96709q7.395,0,11.86274,3.38936c2.97339,2.2647,4.46779,5.66946,4.46779,10.24509A12.255,12.255,0,0,1,68.264,43.2521a13.09944,13.09944,0,0,1-5.82352,4.591v.15406a12.058,12.058,0,0,1,7.70308,4.80672,15.96408,15.96408,0,0,1,2.61905,9.367,15.67559,15.67559,0,0,1-1.15547,6.03922A12.203,12.203,0,0,1,67.98669,73.063a18.45368,18.45368,0,0,1-6.31652,3.23529A30.97611,30.97611,0,0,1,52.5035,77.5H27.23739v-55Zm9.62885,23.03221H52.58053a8.53751,8.53751,0,0,0,5.77731-1.972,7.05609,7.05609,0,0,0,2.31093-5.66947c0-2.77311-.69328-4.72969-2.07983-5.85434a9.33685,9.33685,0,0,0-6.00841-1.69468H36.86625V45.53221Zm0,24.11065H53.89006c2.92717,0,5.20728-.7549,6.80952-2.28011A8.39625,8.39625,0,0,0,63.13375,60.923a8.01589,8.01589,0,0,0-2.43417-6.28571c-1.633-1.479-3.88235-2.18768-6.80952-2.18768H36.86625Z" fill="#fff"/>
    </g>
  </g>
</svg>
