<svg id="Layer_1" data-name="Layer 1" xmlns="http://www.w3.org/2000/svg" width="100" height="100" viewBox="0 0 100 100">
  <title>logo-bootstrap</title>
  <g id="solid">
    <path id="bg" d="M100,0V100H0V0Z" fill="#513f79"/>
    <g id="B" style="isolation: isolate">
      <path d="M27.1732,21.732H55.52287q7.84314,0,12.5817,3.59477c3.1536,2.402,4.73857,6.01307,4.73857,10.866a12.9977,12.9977,0,0,1-2.15687,7.549,13.89341,13.89341,0,0,1-6.17647,4.86928v.1634a12.7888,12.7888,0,0,1,8.16994,5.098,16.93156,16.93156,0,0,1,2.77777,9.93464A16.62548,16.62548,0,0,1,74.232,70.21242a12.94259,12.94259,0,0,1-3.83987,5.14706,19.5719,19.5719,0,0,1-6.69934,3.43137,32.85318,32.85318,0,0,1-9.72222,1.27451H27.1732V21.732Zm10.21242,24.4281H54.05229a9.055,9.055,0,0,0,6.12745-2.0915,7.48375,7.48375,0,0,0,2.451-6.01307c0-2.94118-.7353-5.01634-2.20589-6.20915A9.90267,9.90267,0,0,0,54.05229,30.049H37.38562V46.16013Zm0,25.5719H55.44117c3.10458,0,5.52288-.80066,7.22223-2.4183a8.90514,8.90514,0,0,0,2.5817-6.83007A8.5017,8.5017,0,0,0,62.6634,55.817c-1.732-1.56862-4.11765-2.32026-7.22223-2.32026H37.38562Z" fill="#fff"/>
    </g>
  </g>
</svg>
