<svg id="Layer_1" data-name="Layer 1" xmlns="http://www.w3.org/2000/svg" width="100" height="100" viewBox="0 0 100 100">
  <title>logo-accessibility</title>
  <rect width="100" height="100" fill="#181a7b"/>
  <path d="M75.76893,52.9752,74.106,73.25275c-.4254,5.24664-8.23735,4.52474-7.812-.63166l1.2891-15.79148-5.2982.29649a20.06471,20.06471,0,0,1-3.41612,22.55926L53.80266,74.6192A12.88537,12.88537,0,0,0,35.60055,56.41709l-5.06616-5.06616a19.99608,19.99608,0,0,1,10.49328-5.18219L50.7346,35.12115l-5.49157-3.197L38.59127,37.854c-3.8673,3.45479-9.10105-2.38483-5.22086-5.85251l8.76589-7.82484a3.90779,3.90779,0,0,1,4.5763-.46408s17.95718,10.42882,17.983,10.45461a4.59727,4.59727,0,0,1,.78635,6.78067l-7.52835,8.57252,13.67736-.76057a3.91161,3.91161,0,0,1,4.138,4.21536ZM67.40267,33.12305a6.56153,6.56153,0,1,0-6.56152-6.56153A6.56339,6.56339,0,0,0,67.40267,33.12305ZM44.2762,78.84745A12.90166,12.90166,0,0,1,33.61534,58.72458l-5.11773-5.11773a19.83122,19.83122,0,0,0-4.27981,12.3367c0,16.84854,19.42674,25.96248,32.408,15.79148L51.50806,76.6173a12.80047,12.80047,0,0,1-7.23186,2.23014Z" fill="#fff"/>
</svg>
