<svg id="Layer_1" data-name="Layer 1" xmlns="http://www.w3.org/2000/svg" width="100" height="100" viewBox="0 0 100 100">
  <title>logo-accessibility</title>
  <path d="M100,0H0V100H100Z"/>
  <g>
    <polygon points="50 19.473 48.085 17.56 39.825 17.56 37.85 19.533 37.85 27.666 27.735 17.56 19.476 17.56 17.5 19.533 17.5 47.997 19.536 50.03 27.675 50.03 29.71 47.997 29.71 39.864 39.885 50.03 48.025 50.03 50 48.057 50 19.473" fill="#fff"/>
    <polygon points="72.339 41.897 82.5 31.746 82.5 19.519 80.479 17.5 72.339 17.5 70.304 19.533 70.304 23.6 66.235 27.666 62.164 23.6 62.164 19.533 60.129 17.5 51.989 17.5 50 19.488 50 31.777 60.129 41.897 60.129 47.997 62.164 50.03 70.304 50.03 72.339 47.997 72.339 41.897" fill="#fff"/>
    <g>
      <path d="M81.05426,51.4126c.18924,0,.356-.018.356-.24042,0-.18577-.1821-.20818-.3336-.20818h-.30517v.4486Zm-.28274.87151H80.5194V50.74926h.583c.37134,0,.56.12949.56.441a.3926.3926,0,0,1-.36461.41878q-.01784.00125-.03573.00086l.43044.67426h-.286l-.39707-.65624h-.2379Zm.2751-1.93918a1.07728,1.07728,0,0,0-1.07141,1.08314q.00019.03137.0022.06267a1.06842,1.06842,0,1,0,1.12751-1.14358q-.02912-.00191-.0583-.00223m0,2.5331a1.3361,1.3361,0,0,1-1.36739-1.304q-.001-.04166.00066-.08329a1.36313,1.36313,0,0,1,2.72578-.05085q.00047.02543,0,.05085a1.34525,1.34525,0,0,1-1.3026,1.38669q-.02823.00089-.05645.0006" fill="#fff"/>
      <polygon points="56.105 50.044 50.014 56.13 50 64.258 50.014 64.243 50.014 76.415 56.105 82.5 76.409 82.5 82.5 76.415 82.5 70.329 80.47 68.298 70.318 68.298 70.318 70.329 62.196 70.329 62.196 62.215 70.318 62.215 70.318 64.219 80.47 64.219 82.5 62.215 82.5 56.13 76.409 50.044 56.105 50.044" fill="#fff"/>
    </g>
  </g>
</svg>
