<svg id="Layer_1" data-name="Layer 1" xmlns="http://www.w3.org/2000/svg" width="205" height="30" viewBox="0 0 205 30">
  <title>logo-doitt</title>
  <g>
    <g>
      <path d="M96.38179,25.22759h4.96749c7.8588,0,9.54482-4.49373,9.54482-10.22759s-1.72085-10.22759-9.54482-10.22759H96.41662V25.22759ZM91.36553.68277h11.84394c8.82028,0,12.63122,6.41663,12.63122,14.31723s-3.81094,14.31723-12.63122,14.31723H91.36553Z" fill="#272425"/>
      <path d="M123.41384,15c0,5.49,2.56387,10.91036,8.70181,10.91036S140.81748,20.49,140.81748,15s-2.543-10.91036-8.70183-10.91036S123.41384,9.503,123.41384,15Zm22.41992,0c0,8.17928-5.13469,15-13.71807,15s-13.71807-6.82072-13.71807-15,5.13469-15,13.71807-15S145.83376,6.82072,145.83376,15Z" fill="#272425"/>
    </g>
    <polygon points="149.045 0.683 154.055 0.683 154.055 29.318 149.045 29.318 149.045 0.683 149.045 0.683" fill="#272425"/>
    <g>
      <polygon points="156.515 0.683 179.693 0.683 179.693 5.016 170.587 5.016 170.587 29.318 165.578 29.318 165.578 5.016 156.515 5.016 156.515 0.683 156.515 0.683" fill="#272425"/>
      <polygon points="180.913 0.683 204.092 0.683 204.092 5.016 194.986 5.016 194.986 29.318 189.977 29.318 189.977 5.016 180.913 5.016 180.913 0.683 180.913 0.683" fill="#272425"/>
    </g>
    <path d="M80.9568,12.33859a.50114.50114,0,0,1-.1045.07665l.14632.78727h1.83929Z" fill="#e0932f"/>
    <path d="M70.23455,26.18207a.62721.62721,0,0,1,.10451-.32048L61.56061,15.12541a.97526.97526,0,0,1-.418.1045h-.16025l-3.48351,8.90386L61.67905,28.314l8.59731-2.12495Z" fill="#e0932f"/>
    <path d="M81.05434,11.7255a.48072.48072,0,0,1,.05573.22295h0v.0418l2.61264,1.19833h.40409L85.91733,11.419V6.70924L81.04041,11.7255Z" fill="#e0932f"/>
    <path d="M70.69438,25.61078V18.60892H68.04v-7.19h2.65443V8.80632a1.31674,1.31674,0,0,1-.78727-.41106L62.0065,13.96888a.91962.91962,0,0,1-.13934.93362l8.77845,10.72225h.04875Z" fill="#e0932f"/>
    <path d="M76.895,1.13563,80.58755,11.419a.45984.45984,0,0,1,.209.04875l5.12077-5.288V6.06825L80.54575.6967H77.27822a.97547.97547,0,0,1-.38319.45286Z" fill="#e0932f"/>
    <path d="M83.57641,23.56944,85.91733,21.758V18.60892L84.12681,16.8184H81.66048l1.19833,6.47932a1.00328,1.00328,0,0,1,.69671.29959Z" fill="#e0932f"/>
    <path d="M80.62239,13.18858,80.49,12.49187h-.04181l-.50162.69671Z" fill="#e0932f"/>
    <path d="M81.84162,24.2522a.99628.99628,0,0,1,.641-.91267l-1.21227-6.549h-3.7831l-6.15188,9.05712a.97407.97407,0,0,1,.06968.11148L81.85552,24.287Z" fill="#e0932f"/>
    <path d="M71.04273,8.80632V11.419h4.13144v1.76963h4.3335l.641-.93359a.50164.50164,0,0,1-.0975-.30654h0L71.98327,8.242a1.33772,1.33772,0,0,1-.94055.59917Z" fill="#e0932f"/>
    <polygon points="75.174 16.79 75.174 18.581 71.043 18.581 71.043 25.604 77.055 16.79 75.174 16.79 75.174 16.79" fill="#e0932f"/>
    <path d="M52.40594,10.01161v8.07478l4.87692-4.87692v10.3948L60.641,15.12541a.91267.91267,0,0,1-.418-.76637.84272.84272,0,0,1,.0418-.26476L52.69857,9.83743A.59916.59916,0,0,1,52.40594,10.01161Z" fill="#e0932f"/>
    <path d="M34.41013,11.0288a.55738.55738,0,0,1-.33443.11843.61319.61319,0,0,1-.22294-.04874l-3.48351,3.82489L36.09614,20.699l7.46168-2.78679a1.30339,1.30339,0,0,1,0-.23688,1.12866,1.12866,0,0,1,.10451-.48075Z" fill="#e0932f"/>
    <path d="M24.53786,8.4301V19.57735a1.51187,1.51187,0,0,1,.7594.29261l3.34417-3.64375V13.20949l1.44217,1.44914,3.48351-3.811a.61335.61335,0,0,1-.06967-.25081L25.19275,7.94938A.96844.96844,0,0,1,24.53786,8.4301Z" fill="#e0932f"/>
    <path d="M28.64143,21.45843V16.78356L25.569,20.1347a1.57454,1.57454,0,0,1,.39712,1.03809Z" fill="#e0932f"/>
    <path d="M25.31816,7.46168a.53668.53668,0,0,1,0,.10451l8.31166,2.68231a.53644.53644,0,0,1,.39015-.22295l2.02044-8.52067a.61315.61315,0,0,1-.1672-.13238L25.26242,7.19693a.83591.83591,0,0,1,.05574.29262Z" fill="#e0932f"/>
    <path d="M51.91826,9.96981l-6.27032,6.967a1.1635,1.1635,0,0,1,.25778.6967,1.1982,1.1982,0,0,1-.18114.627L49.20809,21.319l2.87738-2.87738v-8.43l-.11844-.0418Z" fill="#e0932f"/>
    <path d="M51.63958,9.719a.66335.66335,0,0,1-.007-.70367l-5.09285-4.438V6.06825L44.91644,7.69853v8.82028a1.19141,1.19141,0,0,1,.45982.17418l6.27029-6.967Z" fill="#e0932f"/>
    <path d="M52.90061,9.36368a.57833.57833,0,0,1,0,.15327L60.44589,13.732a.94754.94754,0,0,1,.30655-.24384L58.66234,4.6888,57.26892,6.04738V2.4733l-.11147-.11147L52.7055,8.85508a.6967.6967,0,0,1,.19508.48075Z" fill="#e0932f"/>
    <path d="M28.64143,21.82769,25.93125,21.542a1.69966,1.69966,0,0,1-.33442.66187l3.04459,3.17Z" fill="#e0932f"/>
    <path d="M60.75941,2.58476,58.941,4.40316l2.16675,9.05713h.03483a.94746.94746,0,0,1,.634.25778l7.90061-5.57362a1.3932,1.3932,0,0,1-.15327-.60613,1.47719,1.47719,0,0,1,.07663-.432Z" fill="#e0932f"/>
    <path d="M42.95867,9.63539,40.26241,6.93914l-5.63632,3.48351a.76551.76551,0,0,1,0,.12541.48052.48052,0,0,1,0,.13934l9.23131,6.138a1.15651,1.15651,0,0,1,.6967-.36229V8.06782L42.99349,9.63539Z" fill="#e0932f"/>
    <path d="M44.05249,29.12216a.9335.9335,0,0,1,.46678-.27172V18.804a1.1565,1.1565,0,0,1-.82907-.57825l-7.30144,2.73108,1.19833,1.20529v2.71714l6.4654,4.27774Z" fill="#e0932f"/>
    <path d="M72.1923,7.46168a1.19124,1.19124,0,0,1-.06271.38318l8.07478,3.6995h0L76.54667,1.261h-.14631a.9826.9826,0,0,1-.425-.10451L71.79516,6.542a1.33766,1.33766,0,0,1,.38319.93359Z" fill="#e0932f"/>
    <path d="M7.64282,25.46447a.85706.85706,0,0,1-.34835-.32048L0,27.464v.06271L1.79053,29.3242H6.72318Z" fill="#e0932f"/>
    <path d="M25.3321,22.46168a1.56759,1.56759,0,0,1-1.82537.09057l-4.6679,5.915.85.85694h7.1621l1.79052-1.79749V25.9034Z" fill="#e0932f"/>
    <path d="M8.64608,25.24849a.82909.82909,0,0,1-.65491.32746h0L7.09243,29.3451H8.94568L10.778,27.52671V26.27264l-2.09011-1.045Z" fill="#e0932f"/>
    <path d="M7.824,23.91082V11.73944a1.19839,1.19839,0,0,1-.843-.59917L.89175,13.27915a1.83213,1.83213,0,0,1,.03483.34138,1.56062,1.56062,0,0,1-.45982,1.10775l7.19,9.23828A.52244.52244,0,0,1,7.824,23.91082Z" fill="#e0932f"/>
    <path d="M0,5.99164v6.20065a1.56755,1.56755,0,0,1,.7594.73851l6.09615-2.13888a1.067,1.067,0,0,1,0-.209,1.17751,1.17751,0,0,1,.09057-.43892L.0209,5.96378Z" fill="#e0932f"/>
    <path d="M69.76777,6.765a1.33068,1.33068,0,0,1,1.09382-.57825,1.31669,1.31669,0,0,1,.6549.18114l4.1802-5.3925a1.07334,1.07334,0,0,1-.16024-.25777H62.6475L61.03111,2.334Z" fill="#e0932f"/>
    <polygon points="37.587 25.283 37.587 27.526 39.377 29.324 43.691 29.324 37.587 25.283 37.587 25.283" fill="#e0932f"/>
    <path d="M.1672,14.95125A.93386.93386,0,0,1,0,15.03484v12.039l7.183-2.28518V24.719a.80115.80115,0,0,1,.18115-.53647Z" fill="#e0932f"/>
    <path d="M82.44075,25.19275a1.03105,1.03105,0,0,1-.5295-.57825l-10.4505,1.679a.69654.69654,0,0,1-.04875.17418l3.10033,2.85648h6.0195l1.484-1.484.41105-2.6475Z" fill="#e0932f"/>
    <path d="M45.44589,18.55318a1.17032,1.17032,0,0,1-.55736.25081V28.85044a.91272.91272,0,0,1,.641.47376h1.01021l1.78354-1.79749V22.1621l.57129-.57129Z" fill="#e0932f"/>
    <path d="M71.1751,26.73944a.61309.61309,0,0,1-.843-.202L61.97167,28.6275l.6967.6967H74.00372l-2.7868-2.58476Z" fill="#e0932f"/>
    <path d="M83.78541,23.869a1.13583,1.13583,0,0,1,.08361.411,1.01718,1.01718,0,0,1-1.01025,1.01025H82.803l-.33442,2.09011,3.44868-3.48351V22.2248Z" fill="#e0932f"/>
    <path d="M10.778,21.53507v-1.1635l.56432.56433,2.78681-2.9749a.69675.69675,0,0,1-.0836-.3135.648.648,0,0,1,.13934-.39016l-5.497-5.71295a1.27513,1.27513,0,0,1-.48075.19508V23.91082a.75924.75924,0,0,1,.23688.09058Z" fill="#e0932f"/>
    <path d="M10.778,25.8825V22.09243L8.68788,24.2522a.82211.82211,0,0,1,.13933.4668.59894.59894,0,0,1,0,.19507Z" fill="#e0932f"/>
    <path d="M24.25917,6.542h.09754a.96845.96845,0,0,1,.6967.34835L35.69206,1.052a.64812.64812,0,0,1,0-.16721.69649.69649,0,0,1,0-.202H30.432L28.64143,2.47329,26.85091.68277H22.47562Z" fill="#e0932f"/>
    <path d="M7.11333,9.83047A1.20535,1.20535,0,0,1,7.81,9.42638V.68277H1.79053L0,2.4733V5.55968Z" fill="#e0932f"/>
    <path d="M51.88342,8.7645a.62709.62709,0,0,1,.32048-.0836.69587.69587,0,0,1,.1672,0l4.51464-6.60474L55.49233.68277H48.32325L46.53975,2.4733V4.08964Z" fill="#e0932f"/>
    <path d="M37.0785.88481a.69671.69671,0,0,1-.6967.69671l-2.00651,8.52763.04875.03483,5.57362-3.48351-.62-.59222V2.4733L37.58709.68277h-.54343a.69719.69719,0,0,1,0,.202Z" fill="#e0932f"/>
    <path d="M14.81886,17.04134,23.56944,8.033a.91969.91969,0,0,1-.17418-.54343.96145.96145,0,0,1,.5086-.843L22.09243.68277H19.6888L17.89828,2.47329v7.1621L14.81886,6.556Z" fill="#e0932f"/>
    <path d="M8.19322,9.42638a1.18443,1.18443,0,0,1,.5295.23688l4.76545-4.445L8.95262.68277h-.7594Z" fill="#e0932f"/>
    <path d="M14.4496,17.04134V6.18675L13.7529,5.49,8.98746,9.94193a1.17747,1.17747,0,0,1,.202.6549,1.13557,1.13557,0,0,1-.24384.6967l5.51091,5.75475Z" fill="#e0932f"/>
    <path d="M24.1686,19.59127V8.444a.94772.94772,0,0,1-.33442-.13934l-8.70877,8.95957a.61316.61316,0,0,1,.13934.38325v.03483l7.66373,2.78681a1.6024,1.6024,0,0,1,1.25406-.87784Z" fill="#e0932f"/>
    <path d="M22.74036,21.18675a1.63756,1.63756,0,0,1,.04875-.37622l-7.66372-2.78681a.62011.62011,0,0,1-.49467.25081h0a.59914.59914,0,0,1-.27171-.0627L11.5722,21.19371l7.00186,7.01579,4.647-5.88016A1.58851,1.58851,0,0,1,22.74036,21.18675Z" fill="#e0932f"/>
    <path d="M84.62842,1.64422h.13238a.29263.29263,0,0,0,.1045,0,.16731.16731,0,0,0,.07664-.0627.17424.17424,0,0,0,0-.11844.27871.27871,0,0,0,0-.10451.1951.1951,0,0,0-.06968-.06271h-.45982V1.7Zm.09058-.5713a.51563.51563,0,0,1,.34836.09057.34841.34841,0,0,1,.11147.27869.32743.32743,0,0,1-.0975.25778.39021.39021,0,0,1-.24385.09057l.36925.57825h-.216l-.36225-.5504h-.216v.55041h-.202V1.07292Zm-.91268,1.01719a.84328.84328,0,0,0,.18811.29958.91946.91946,0,0,0,.29262.20205.93368.93368,0,0,0,.6967,0,.85014.85014,0,0,0,.29262-.20205.857.857,0,0,0,.19507-.29958.97535.97535,0,0,0,.06968-.37622.96851.96851,0,0,0-.06968-.36925.857.857,0,0,0-.19507-.29959A.87111.87111,0,0,0,84.99072.85a.91966.91966,0,0,0-.6967,0,.82924.82924,0,0,0-.29262.19508.94751.94751,0,0,0-.26475.69671.857.857,0,0,0,.0627.37622ZM83.62518,1.275A1.05894,1.05894,0,0,1,83.869.93362a1.10039,1.10039,0,0,1,.34836-.23688,1.15646,1.15646,0,0,1,.86391,0,1.14256,1.14256,0,0,1,.59219.57825,1.20523,1.20523,0,0,1,.09058.43891,1.08681,1.08681,0,0,1-.09058.44589,1.19828,1.19828,0,0,1-.59219.57825,1.15646,1.15646,0,0,1-.86391,0,1.09381,1.09381,0,0,1-.59221-.57825A1.12866,1.12866,0,0,1,83.62518,1.275Z" fill="#de8c2e"/>
  </g>
</svg>
