<svg id="Layer_1" data-name="Layer 1" xmlns="http://www.w3.org/2000/svg" width="100" height="100" viewBox="0 0 100 100">
  <title>logo-font-awesome</title>
  <path d="M100,0H0V100H100ZM75.78506,62.11137c0,.84366-.72313,1.20522-1.56678,1.56679-3.35454,1.44627-6.95013,2.75193-10.80684,2.75193-5.40341,0-7.91429-3.35454-14.40241-3.35454-4.68028,0-9.60161,1.68731-13.55875,3.47506-.24105.12052-.48209.12052-.72314.241v9.11952a2.34958,2.34958,0,0,1-.12052.96418v.241c-.84827,2.96894-5.05485,4.38311-7.9143.52187V32.00089A6.71115,6.71115,0,1,1,37.51924,26.718a6.39962,6.39962,0,0,1-2.6314,5.28289V35.717a4.28077,4.28077,0,0,0,1.0847-.48209,33.09511,33.09511,0,0,1,12.35353-2.87244c4.55976,0,8.15534,1.20522,12.233,2.75192a6.45236,6.45236,0,0,0,2.63141.48209c4.55975,0,9.6016-3.234,10.80683-3.234a1.73791,1.73791,0,0,1,1.80783,1.56679V62.11137Z" fill="#0058e5"/>
</svg>
