<svg xmlns="http://www.w3.org/2000/svg" width="190.6667" height="40" viewBox="0 0 190.6667 40">
  <title>nyc-information-technology-and-telecommunications</title>
  <g>
    <path d="M85.3574,27.4032h11.09c8.2426,0,11.8018-5.9978,11.8018-13.3831S104.69.6374,96.4472.6374h-11.09ZM103.5657,14.02c0,5.3608-1.5736,9.56-8.9168,9.56H90.0406V4.461h4.6083C101.9921,4.461,103.5657,8.66,103.5657,14.02Z" fill="#fff"/>
    <path d="M110.6125,14.02c0,7.6476,4.7956,14.0205,12.8133,14.0205s12.8133-6.3729,12.8133-14.0205S131.4435,0,123.4258,0,110.6125,6.3728,110.6125,14.02Zm20.9436,0c0,5.1361-2.3978,10.1968-8.13,10.1968s-8.13-5.0607-8.13-10.1968,2.3978-10.1965,8.13-10.1965S131.5561,8.8844,131.5561,14.02Z" fill="#fff"/>
    <rect x="139.2403" y="0.6374" width="4.6833" height="26.7658" fill="#fff"/>
    <polygon points="146.218 4.686 154.685 4.686 154.685 27.403 159.369 27.403 159.369 4.686 167.873 4.686 167.873 0.637 146.218 0.637 146.218 4.686" fill="#fff"/>
    <polygon points="169.011 4.686 177.479 4.686 177.479 27.403 182.162 27.403 182.162 4.686 190.667 4.686 190.667 0.637 169.011 0.637 169.011 4.686" fill="#fff"/>
    <rect x="0.0273" y="32.4274" width="1.5711" height="6.0344" fill="#fff"/>
    <path d="M5.2466,33.9487a1.6558,1.6558,0,0,0-1.3769.7269H3.8529v-.6H2.4592v4.3864h1.436V36.07c0-.4816.2364-.938.777-.938.7855,0,.718.6086.718,1.2084v2.1215H6.8261V35.6476C6.8261,35.0134,6.7078,33.9487,5.2466,33.9487Z" fill="#fff"/>
    <path d="M7.923,34.0754H7.23v.93H7.923v3.4568H9.3587V35.005H10.22v-.93H9.3587v-.1943c0-.3971.2028-.44.5322-.44a3.1188,3.1188,0,0,1,.3886.0253V32.4527c-.2281-.0084-.4645-.0253-.6925-.0253C8.362,32.4274,7.923,32.8161,7.923,34.0754Z" fill="#fff"/>
    <path d="M12.6606,33.9487a2.32,2.32,0,0,0,0,4.64,2.32,2.32,0,0,0,0-4.64Zm0,3.5411c-.6673,0-.87-.6591-.87-1.2171s.2026-1.2253.87-1.2253.8786.6675.8786,1.2253S13.3279,37.49,12.6606,37.49Z" fill="#fff"/>
    <path d="M17.018,34.8446h-.0169v-.7692H15.6074v4.3864h1.436V36.29a1.0088,1.0088,0,0,1,1.0811-1.04,2.0029,2.0029,0,0,1,.549.0846v-1.31a1.514,1.514,0,0,0-.3379-.034A1.3219,1.3219,0,0,0,17.018,34.8446Z" fill="#fff"/>
    <path d="M24.2982,33.9487a1.6058,1.6058,0,0,0-1.3685.71,1.2662,1.2662,0,0,0-1.2754-.71,1.4614,1.4614,0,0,0-1.2585.7269h-.0169v-.6H18.9852v4.3864h1.436V36.3235c0-.8959.2194-1.1916.7348-1.1916.3884,0,.5406.321.5406.8366v2.4933h1.4359V36.3151c0-.71.0591-1.1832.6757-1.1832.3716,0,.6.2789.6.7521v2.5778h1.436v-2.62C25.8439,35.005,25.6919,33.9487,24.2982,33.9487Z" fill="#fff"/>
    <path d="M30.699,35.4192c0-1.2424-1.0051-1.47-2.0442-1.47a2.8913,2.8913,0,0,0-1.3935.3042,1.3491,1.3491,0,0,0-.6843,1.1747H27.92a.6425.6425,0,0,1,.718-.5493c.2957,0,.6927.1267.6927.4564,0,.27-.1353.355-.38.4058-.9967.2028-2.5509.093-2.5509,1.521a1.3126,1.3126,0,0,0,1.4952,1.327,1.9788,1.9788,0,0,0,1.4443-.5409,1.7136,1.7136,0,0,0,.0845.4142H30.868a2.553,2.553,0,0,1-.169-1.1242ZM28.4354,37.701c-.3212,0-.6-.1435-.6-.4984,0-.3466.27-.482.5913-.5578a4.0522,4.0522,0,0,0,.8869-.2368C29.3475,37.3123,29.12,37.701,28.4354,37.701Z" fill="#fff"/>
    <path d="M33.2318,32.7484h-1.436v1.327h-.7264v.93h.7264v1.9524c0,1.1915.3126,1.5465,1.5373,1.5465.2619,0,.5237-.0336.7854-.0421V37.4053c-.1265,0-.2532.0168-.3716.0168-.3125,0-.5151-.0761-.5151-.4223V35.005h.8867v-.93h-.8867Z" fill="#fff"/>
    <rect x="34.6416" y="32.4274" width="1.4359" height="1.0986" fill="#fff"/>
    <rect x="34.6416" y="34.0754" width="1.4359" height="4.3865" fill="#fff"/>
    <path d="M39.0163,33.9487a2.32,2.32,0,1,0,2.3145,2.324A2.2415,2.2415,0,0,0,39.0163,33.9487Zm0,3.5411c-.6673,0-.87-.6591-.87-1.2171s.2027-1.2253.87-1.2253.8785.6675.8785,1.2253S39.6836,37.49,39.0163,37.49Z" fill="#fff"/>
    <path d="M44.7,33.9487a1.6555,1.6555,0,0,0-1.3768.7269h-.0169v-.6H41.9124v4.3864h1.436V36.07c0-.4816.2364-.938.777-.938.7855,0,.718.6086.718,1.2084v2.1215h1.4359V35.6476C46.2793,35.0134,46.161,33.9487,44.7,33.9487Z" fill="#fff"/>
    <polygon points="54.394 32.427 49.225 32.427 49.225 33.78 51.024 33.78 51.024 38.462 52.595 38.462 52.595 33.78 54.394 33.78 54.394 32.427" fill="#fff"/>
    <path d="M56.0745,33.9487a2.3014,2.3014,0,0,0-2.3652,2.3071,2.2052,2.2052,0,0,0,2.3988,2.3327,2.0746,2.0746,0,0,0,2.1794-1.4536H56.9444a.8559.8559,0,0,1-.8193.4816.9357.9357,0,0,1-.98-.9973h3.2181A2.2787,2.2787,0,0,0,56.0745,33.9487Zm-.9292,1.8676a.9468.9468,0,0,1,.9292-.8959.8882.8882,0,0,1,.8529.8959Z" fill="#fff"/>
    <path d="M60.9892,37.49c-.6082,0-.8531-.5833-.8531-1.15,0-.6085.1267-1.2929.9292-1.2929a.6758.6758,0,0,1,.701.6338H63.16a1.967,1.967,0,0,0-2.1624-1.7325A2.22,2.22,0,0,0,58.7,36.34a2.1829,2.1829,0,0,0,2.2974,2.2482,2.0554,2.0554,0,0,0,2.2046-1.8507H61.8085A.7694.7694,0,0,1,60.9892,37.49Z" fill="#fff"/>
    <path d="M66.5375,33.9487a1.5288,1.5288,0,0,0-1.3347.7269H65.186V32.4274H63.75v6.0344h1.436V36.07c0-.4816.2364-.938.777-.938.7855,0,.718.6086.718,1.2084v2.1215h1.436V35.6476C68.117,35.0134,67.9986,33.9487,66.5375,33.9487Z" fill="#fff"/>
    <path d="M71.6886,33.9487a1.6555,1.6555,0,0,0-1.3768.7269h-.0169v-.6H68.9012v4.3864h1.436V36.07c0-.4816.2364-.938.777-.938.7855,0,.718.6086.718,1.2084v2.1215h1.436V35.6476C73.2682,35.0134,73.15,33.9487,71.6886,33.9487Z" fill="#fff"/>
    <path d="M76.1469,33.9487a2.32,2.32,0,1,0,2.3145,2.324A2.2416,2.2416,0,0,0,76.1469,33.9487Zm0,3.5411c-.6673,0-.87-.6591-.87-1.2171s.2026-1.2253.87-1.2253.8786.6675.8786,1.2253S76.8142,37.49,76.1469,37.49Z" fill="#fff"/>
    <rect x="79.0937" y="32.4274" width="1.436" height="6.0344" fill="#fff"/>
    <path d="M83.4684,33.9487a2.32,2.32,0,1,0,2.3145,2.324A2.2415,2.2415,0,0,0,83.4684,33.9487Zm0,3.5411c-.6673,0-.87-.6591-.87-1.2171s.2027-1.2253.87-1.2253.8785.6675.8785,1.2253S84.1357,37.49,83.4684,37.49Z" fill="#fff"/>
    <path d="M89.2278,34.6247H89.211a1.2679,1.2679,0,0,0-1.1741-.676,1.947,1.947,0,0,0-1.9258,2.1465c0,1.234.6,2.1807,1.9258,2.1807a1.3881,1.3881,0,0,0,1.1657-.6423h.0168v.414c0,.5409-.0675,1.0225-.7518,1.0225a1.139,1.139,0,0,1-.5236-.093.469.469,0,0,1-.245-.38H86.263C86.432,39.7716,87.395,40,88.417,40c2.0526,0,2.1877-1.3523,2.1877-2.0706v-3.854H89.2278Zm-.8531,2.5523c-.5912,0-.8277-.5154-.8277-1.031,0-.5409.2026-1.0986.8363-1.0986.6419,0,.8615.5493.8615,1.1071C89.2448,36.7038,88.983,37.177,88.3747,37.177Z" fill="#fff"/>
    <path d="M93.18,36.9321h-.0168l-.8279-2.8567h-1.52l1.1318,3.051a6.028,6.028,0,0,1,.3632,1.15.51.51,0,0,1-.5744.49h-.4984v1.1663h.6758c.9714,0,1.4866-.1182,1.8329-1.0818l1.7315-4.7751h-1.47Z" fill="#fff"/>
    <path d="M103.3306,35.5206h-1.2331a1.3621,1.3621,0,0,1-.22.5917l-.6251-.7524a1.6635,1.6635,0,0,0,1.0305-1.4957,1.5993,1.5993,0,0,0-1.7062-1.5637,1.6233,1.6233,0,0,0-1.7231,1.53,1.7429,1.7429,0,0,0,.5322,1.1579,2.0162,2.0162,0,0,0-1.3685,1.7581,1.8868,1.8868,0,0,0,2.01,1.8423,2.5645,2.5645,0,0,0,1.7314-.6339l.4225.5072H103.93l-1.267-1.4708A2.5354,2.5354,0,0,0,103.3306,35.5206Zm-3.1335,1.9015a.7527.7527,0,0,1-.7941-.6928c0-.3637.4054-.6594.7011-.7945L101,36.991A1.376,1.376,0,0,1,100.1971,37.4221Zm.3547-2.8988c-.1858-.2367-.4224-.4311-.4224-.76a.4912.4912,0,0,1,.98.0168C101.1092,34.1431,100.8474,34.3458,100.5518,34.5233Z" fill="#fff"/>
    <polygon points="111.471 32.427 106.302 32.427 106.302 33.78 108.101 33.78 108.101 38.462 109.672 38.462 109.672 33.78 111.471 33.78 111.471 32.427" fill="#fff"/>
    <path d="M113.1509,33.9487a2.3013,2.3013,0,0,0-2.365,2.3071,2.2052,2.2052,0,0,0,2.399,2.3327,2.0745,2.0745,0,0,0,2.1791-1.4536h-1.343a.8559.8559,0,0,1-.8193.4816.9358.9358,0,0,1-.98-.9973H115.44A2.2789,2.2789,0,0,0,113.1509,33.9487Zm-.9291,1.8676a.947.947,0,0,1,.9291-.8959.8886.8886,0,0,1,.8533.8959Z" fill="#fff"/>
    <rect x="116.0386" y="32.4274" width="1.4359" height="6.0344" fill="#fff"/>
    <path d="M120.4727,33.9487a2.3013,2.3013,0,0,0-2.365,2.3071,2.2052,2.2052,0,0,0,2.3989,2.3327,2.0746,2.0746,0,0,0,2.1792-1.4536h-1.343a.8559.8559,0,0,1-.8193.4816.9357.9357,0,0,1-.98-.9973h3.2183A2.2789,2.2789,0,0,0,120.4727,33.9487Zm-.9291,1.8676a.947.947,0,0,1,.9291-.8959.8885.8885,0,0,1,.8532.8959Z" fill="#fff"/>
    <path d="M125.3874,37.49c-.6079,0-.853-.5833-.853-1.15,0-.6085.1266-1.2929.9291-1.2929a.6759.6759,0,0,1,.7011.6338h1.3939a1.9672,1.9672,0,0,0-2.1624-1.7325,2.22,2.22,0,0,0-2.2976,2.3916,2.1829,2.1829,0,0,0,2.2976,2.2482,2.0555,2.0555,0,0,0,2.2045-1.8507h-1.3939A.7691.7691,0,0,1,125.3874,37.49Z" fill="#fff"/>
    <path d="M130.2432,33.9487a2.32,2.32,0,1,0,2.3142,2.324A2.2416,2.2416,0,0,0,130.2432,33.9487Zm0,3.5411c-.6675,0-.87-.6591-.87-1.2171s.2026-1.2253.87-1.2253.8782.6675.8782,1.2253S130.91,37.49,130.2432,37.49Z" fill="#fff"/>
    <path d="M138.4519,33.9487a1.6056,1.6056,0,0,0-1.3682.71,1.2662,1.2662,0,0,0-1.2754-.71,1.4617,1.4617,0,0,0-1.2586.7269h-.0168v-.6H133.139v4.3864h1.436V36.3235c0-.8959.22-1.1916.7348-1.1916.3887,0,.5405.321.5405.8366v2.4933h1.436V36.3151c0-.71.0592-1.1832.6759-1.1832.3716,0,.6.2789.6.7521v2.5778h1.4356v-2.62C139.9976,35.005,139.8458,33.9487,138.4519,33.9487Z" fill="#fff"/>
    <path d="M146.1029,33.9487a1.6059,1.6059,0,0,0-1.3683.71,1.2661,1.2661,0,0,0-1.2754-.71,1.4616,1.4616,0,0,0-1.2585.7269h-.0168v-.6H140.79v4.3864h1.4359V36.3235c0-.8959.22-1.1916.7348-1.1916.3888,0,.5406.321.5406.8366v2.4933h1.436V36.3151c0-.71.0592-1.1832.6759-1.1832.3716,0,.6.2789.6.7521v2.5778h1.4356v-2.62C147.6486,35.005,147.4968,33.9487,146.1029,33.9487Z" fill="#fff"/>
    <path d="M151.3633,36.4249c0,.7777-.4729.98-.7856.98-.4561,0-.7095-.2027-.7095-.7861V34.0754h-1.436v2.6368c0,1.1495.3632,1.8763,1.6218,1.8763a1.6148,1.6148,0,0,0,1.3346-.7268h.0168v.6h1.3939V34.0754h-1.436Z" fill="#fff"/>
    <path d="M156.3791,33.9487a1.6553,1.6553,0,0,0-1.3767.7269h-.0169v-.6h-1.3938v4.3864h1.4359V36.07c0-.4816.2367-.938.7772-.938.7857,0,.718.6086.718,1.2084v2.1215h1.4359V35.6476C157.9587,35.0134,157.8406,33.9487,156.3791,33.9487Z" fill="#fff"/>
    <rect x="158.7935" y="32.4274" width="1.4359" height="1.0986" fill="#fff"/>
    <rect x="158.7935" y="34.0754" width="1.4359" height="4.3865" fill="#fff"/>
    <path d="M163.1515,37.49c-.6079,0-.8529-.5833-.8529-1.15,0-.6085.1265-1.2929.929-1.2929a.6758.6758,0,0,1,.7011.6338h1.3939a1.9671,1.9671,0,0,0-2.1623-1.7325,2.22,2.22,0,0,0-2.2977,2.3916,2.183,2.183,0,0,0,2.2977,2.2482,2.0554,2.0554,0,0,0,2.2044-1.8507h-1.3939A.7691.7691,0,0,1,163.1515,37.49Z" fill="#fff"/>
    <path d="M169.9751,35.4192c0-1.2424-1.0051-1.47-2.0438-1.47a2.8934,2.8934,0,0,0-1.3939.3042,1.349,1.349,0,0,0-.684,1.1747h1.3431a.6421.6421,0,0,1,.718-.5493c.2955,0,.6924.1267.6924.4564,0,.27-.135.355-.38.4058-.9967.2028-2.5508.093-2.5508,1.521a1.3125,1.3125,0,0,0,1.4949,1.327,1.9786,1.9786,0,0,0,1.4444-.5409,1.7426,1.7426,0,0,0,.0844.4142h1.4444a2.553,2.553,0,0,1-.169-1.1242Zm-2.2636,2.2818c-.3208,0-.6-.1435-.6-.4984,0-.3466.27-.482.5911-.5578a4.0491,4.0491,0,0,0,.8869-.2368C168.6237,37.3123,168.3958,37.701,167.7115,37.701Z" fill="#fff"/>
    <path d="M172.5081,32.7484h-1.436v1.327h-.7264v.93h.7264v1.9524c0,1.1915.3124,1.5465,1.5373,1.5465.2619,0,.5237-.0336.7856-.0421V37.4053c-.1269,0-.2534.0168-.3716.0168-.3127,0-.5153-.0761-.5153-.4223V35.005h.8869v-.93h-.8869Z" fill="#fff"/>
    <rect x="173.9178" y="34.0754" width="1.4359" height="4.3865" fill="#fff"/>
    <rect x="173.9178" y="32.4274" width="1.4359" height="1.0986" fill="#fff"/>
    <path d="M178.2929,33.9487a2.32,2.32,0,1,0,2.3142,2.324A2.2414,2.2414,0,0,0,178.2929,33.9487Zm0,3.5411c-.6674,0-.87-.6591-.87-1.2171s.2027-1.2253.87-1.2253.8782.6675.8782,1.2253S178.96,37.49,178.2929,37.49Z" fill="#fff"/>
    <path d="M183.9761,33.9487a1.6555,1.6555,0,0,0-1.3767.7269h-.0168v-.6h-1.3939v4.3864h1.436V36.07c0-.4816.2366-.938.7772-.938.7856,0,.718.6086.718,1.2084v2.1215h1.4359V35.6476C185.5558,35.0134,185.4373,33.9487,183.9761,33.9487Z" fill="#fff"/>
    <path d="M189.22,35.8419c-.6588-.1438-1.6218-.22-1.6218-.6339,0-.3044.38-.33.6167-.33a.8484.8484,0,0,1,.4561.11.4126.4126,0,0,1,.1858.38h1.3262c-.0508-1.1407-1.0559-1.42-2.0186-1.42-.8617,0-2.0021.2873-2.0021,1.3439,0,1.1832,1.132,1.2084,2.0357,1.4367.2535.059.7012.1267.7012.4648,0,.3466-.3972.4648-.6759.4648a.9.9,0,0,1-.5322-.1522.59.59,0,0,1-.2363-.49h-1.3683c.0421,1.2253,1.1064,1.5719,2.1452,1.5719.9883,0,2.1034-.3887,2.1034-1.5634A1.2433,1.2433,0,0,0,189.22,35.8419Z" fill="#fff"/>
    <polygon points="80.263 22.393 80.263 17.375 78.59 15.7 70.23 15.7 70.23 17.375 63.541 17.375 63.541 10.682 70.23 10.682 70.23 12.336 78.59 12.336 80.263 10.682 80.263 5.664 75.245 0.645 58.524 0.645 53.51 5.664 53.51 2.318 51.835 0.645 45.146 0.645 43.475 2.318 43.475 5.664 40.131 9.011 36.788 5.664 36.788 2.318 35.113 0.645 28.426 0.645 26.753 2.318 25.082 0.645 18.395 0.645 16.722 2.318 16.722 9.011 8.36 0.645 1.673 0.645 0 2.318 0 25.74 1.673 27.415 8.36 27.415 10.033 25.74 10.033 19.047 18.395 27.415 25.082 27.415 26.753 25.74 26.753 12.355 35.113 20.72 35.113 25.74 36.788 27.415 43.475 27.415 45.146 25.74 45.146 20.72 53.51 12.355 53.51 22.393 58.524 27.415 75.245 27.415 80.263 22.393" fill="#fff"/>
    <path d="M78.6454.962V2.1726h.188V1.6581h.1992l.3326.5145h.2025l-.3455-.5354a.3972.3972,0,0,0,.2266-.09.2931.2931,0,0,0,.0916-.24.3216.3216,0,0,0-.1044-.26A.4978.4978,0,0,0,79.1146.962Zm.6186.1864a.1711.1711,0,0,1,.0611.0563.1852.1852,0,0,1,.0241.0965.2052.2052,0,0,1-.0273.1125.1605.1605,0,0,1-.0707.06.3107.3107,0,0,1-.1013.0241h-.3165V1.1227h.249a.6743.6743,0,0,1,.0964,0A.2819.2819,0,0,1,79.264,1.1484Z" fill="#fff"/>
    <path d="M78.316.8333a1.0279,1.0279,0,0,0-.2266.3216,1.06,1.06,0,0,0,0,.8248,1.0317,1.0317,0,0,0,.5576.5386,1.0578,1.0578,0,0,0,.4017.0787,1.0461,1.0461,0,0,0,.4017-.0787.9969.9969,0,0,0,.3294-.2171,1.0236,1.0236,0,0,0,.2234-.3215,1.0006,1.0006,0,0,0,.0835-.4164.9926.9926,0,0,0-.0835-.4084A1.0479,1.0479,0,0,0,78.647.6115,1.055,1.055,0,0,0,78.316.8333Zm1.5265.3827a.9216.9216,0,0,1,.0658.3473.9341.9341,0,0,1-.0658.352.8537.8537,0,0,1-.18.2814.8288.8288,0,0,1-.278.1865.8538.8538,0,0,1-.6732,0,.842.842,0,0,1-.2732-.1865.8733.8733,0,0,1-.1783-.2814.9328.9328,0,0,1-.0579-.352.92.92,0,0,1,.0659-.3473.8779.8779,0,0,1,.1783-.2782A.8941.8941,0,0,1,78.7193.753a.8506.8506,0,0,1,.9432.1848A.8561.8561,0,0,1,79.8425,1.216Z" fill="#fff"/>
  </g>
</svg>
