<svg xmlns="http://www.w3.org/2000/svg" width="223.1252" height="47.0407" viewBox="0 0 223.1252 47.0407">
  <title>nyc-doitt-logo-tagline</title>
  <g>
    <polygon points="65.588 0 59.967 5.622 59.967 1.874 58.093 0 50.597 0 48.723 1.874 48.723 5.622 44.975 9.37 41.227 5.622 41.227 1.874 39.353 0 31.857 0 29.984 1.874 28.109 0 20.614 0 18.74 1.874 18.74 9.37 9.37 0 1.875 0 0 1.874 0 28.109 1.875 29.983 9.37 29.983 11.244 28.109 11.244 20.614 20.614 29.983 28.109 29.983 29.984 28.109 29.984 13.118 39.353 22.487 39.353 28.109 41.227 29.983 48.723 29.983 50.597 28.109 50.597 22.487 59.967 13.118 59.967 24.362 65.588 29.983 84.328 29.983 89.949 24.362 89.949 18.739 88.076 16.491 78.706 16.491 78.706 18.739 71.21 18.739 71.21 11.244 78.706 11.244 78.706 13.492 88.076 13.492 89.949 11.244 89.949 5.622 84.328 0 65.588 0"/>
    <path d="M89.2634,1.0041c0-.2877-.1741-.4074-.5168-.4074h-.5382V2.0145h.2328V1.4083h.22l.3663.6062h.2641l-.3971-.6229A.3624.3624,0,0,0,89.2634,1.0041Zm-.8222.2053V.7949h.2816c.14,0,.3081.0208.3081.1925,0,.2055-.1541.222-.3287.222Z"/>
    <path d="M88.6951,0a1.2438,1.2438,0,0,0-1.2614,1.2816,1.2581,1.2581,0,1,0,2.5158,0A1.2423,1.2423,0,0,0,88.6951,0Zm0,2.3407a.986.986,0,0,1-.9869-1.0591.9862.9862,0,1,1,1.9671,0A.9919.9919,0,0,1,88.6951,2.3407Z"/>
    <path d="M157.4116,14.9916A14.9916,14.9916,0,1,0,142.42,29.9832,14.9915,14.9915,0,0,0,157.4116,14.9916Zm-27.172,0A12.1807,12.1807,0,1,1,142.42,27.1722,12.1945,12.1945,0,0,1,130.24,14.9916Z"/>
    <path d="M152.7269,14.9916A10.3067,10.3067,0,1,0,142.42,25.2983,10.3183,10.3183,0,0,0,152.7269,14.9916Zm-17.8025,0a7.4958,7.4958,0,1,1,7.4957,7.4958A7.4958,7.4958,0,0,1,134.9244,14.9916Z"/>
    <path d="M120.87,14.9916A10.3183,10.3183,0,0,0,110.5629,4.6849H100.2562V25.2983h10.3067A10.3184,10.3184,0,0,0,120.87,14.9916ZM103.0671,7.4958h7.4958a7.4958,7.4958,0,1,1,0,14.9916h-7.4958Z"/>
    <path d="M110.5628,29.983a14.9914,14.9914,0,0,0,0-29.9828V0H95.5714V29.9832h14.9914ZM98.3823,2.8109h12.1806a12.1807,12.1807,0,1,1,0,24.3613H98.3823Z"/>
    <rect x="196.7647" width="26.2353" height="2.8109"/>
    <polygon points="210.819 29.983 213.63 29.983 213.63 7.496 223 7.496 223 4.685 210.819 4.685 210.819 29.983"/>
    <polygon points="206.134 29.983 208.945 29.983 208.945 4.685 196.765 4.685 196.765 7.496 206.134 7.496 206.134 29.983"/>
    <rect x="168.6555" width="26.2353" height="2.8109"/>
    <polygon points="185.521 29.983 185.521 7.496 194.891 7.496 194.891 4.685 182.71 4.685 182.71 29.983 185.521 29.983"/>
    <polygon points="178.025 29.983 180.836 29.983 180.836 4.685 168.656 4.685 168.656 7.496 178.025 7.496 178.025 29.983"/>
    <rect x="159.2857" width="2.811" height="29.9832"/>
    <rect x="163.9706" width="2.8109" height="29.9832"/>
    <polygon points="8.068 34.776 0.175 34.776 0.175 36.557 3.063 36.557 3.063 44.41 5.181 44.41 5.181 36.557 8.068 36.557 8.068 34.776"/>
    <path d="M13.3507,38.5135a3.1011,3.1011,0,0,0-1.0861-.9244,3.3182,3.3182,0,0,0-1.5516-.344,3.6122,3.6122,0,0,0-1.45.2835,3.3715,3.3715,0,0,0-1.8552,1.9429,4.0665,4.0665,0,0,0-.2564,1.4571,4.2445,4.2445,0,0,0,.25,1.4841,3.3679,3.3679,0,0,0,.7084,1.16,3.0866,3.0866,0,0,0,1.12.7489,3.9862,3.9862,0,0,0,1.4843.263,3.6534,3.6534,0,0,0,2.0238-.54,3.201,3.201,0,0,0,1.2413-1.7944H12.2916a1.2041,1.2041,0,0,1-.5127.6138,1.7075,1.7075,0,0,1-.9985.29,1.7124,1.7124,0,0,1-1.2413-.4182,1.9366,1.9366,0,0,1-.4722-1.3492H14.1a4.9314,4.9314,0,0,0-.1348-1.5517A3.8018,3.8018,0,0,0,13.3507,38.5135ZM9.0669,40.1729a2.1853,2.1853,0,0,1,.0876-.4586,1.4117,1.4117,0,0,1,.2564-.4858,1.4545,1.4545,0,0,1,.4858-.3845,1.6693,1.6693,0,0,1,.7623-.1552,1.3461,1.3461,0,0,1,1.0457.3779,2.215,2.215,0,0,1,.4789,1.1062Z"/>
    <path d="M19.5976,42.77a1.4036,1.4036,0,0,1-1.0591.3845,1.3531,1.3531,0,0,1-.7557-.2024,1.51,1.51,0,0,1-.4924-.5194,2.3778,2.3778,0,0,1-.2631-.7084,3.786,3.786,0,0,1-.081-.769,3.95,3.95,0,0,1,.081-.7892,2.3305,2.3305,0,0,1,.2766-.7288,1.6626,1.6626,0,0,1,.5059-.54,1.3462,1.3462,0,0,1,.7691-.2092A1.2848,1.2848,0,0,1,19.9956,39.89h1.8756A2.5474,2.5474,0,0,0,20.812,37.9a3.1924,3.1924,0,0,0-1.0254-.4925,4.3773,4.3773,0,0,0-1.1942-.1619,3.8041,3.8041,0,0,0-1.5111.2835,3.1779,3.1779,0,0,0-1.12.7892,3.3826,3.3826,0,0,0-.6949,1.2009A4.6475,4.6475,0,0,0,15.03,41.023a3.904,3.904,0,0,0,.2564,1.4369,3.3426,3.3426,0,0,0,.7151,1.1268,3.1838,3.1838,0,0,0,1.1131.7353,3.8194,3.8194,0,0,0,1.4369.263,3.4837,3.4837,0,0,0,2.28-.7286,3.1607,3.1607,0,0,0,1.0795-2.1182H20.0631A1.8184,1.8184,0,0,1,19.5976,42.77Z"/>
    <path d="M29.0354,38.0346a1.8716,1.8716,0,0,0-.7758-.58,3.2564,3.2564,0,0,0-1.2616-.2092,2.5146,2.5146,0,0,0-1.1064.2767,2.2189,2.2189,0,0,0-.9309.8837h-.04V34.776H23.0044V44.41H24.92V40.7532a2.5862,2.5862,0,0,1,.3508-1.5313,1.327,1.327,0,0,1,1.1334-.4656,1.0455,1.0455,0,0,1,.958.425,2.4469,2.4469,0,0,1,.27,1.2885v3.94h1.9161V40.119a5.6349,5.6349,0,0,0-.1148-1.1806A2.2457,2.2457,0,0,0,29.0354,38.0346Z"/>
    <path d="M37.05,38.0346a1.8713,1.8713,0,0,0-.7757-.58,3.2573,3.2573,0,0,0-1.2617-.2092,2.7322,2.7322,0,0,0-1.1873.2767,2.198,2.198,0,0,0-.9444.8837h-.04v-.9714H31.0188V44.41h1.9158V40.7532a2.5853,2.5853,0,0,1,.3509-1.5313,1.3267,1.3267,0,0,1,1.1333-.4656,1.0455,1.0455,0,0,1,.958.425,2.4468,2.4468,0,0,1,.27,1.2885v3.94h1.916V40.119a5.6352,5.6352,0,0,0-.1147-1.1806A2.2458,2.2458,0,0,0,37.05,38.0346Z"/>
    <path d="M45.0507,38.25a3.2573,3.2573,0,0,0-1.14-.7421,4.04,4.04,0,0,0-1.4909-.2631,3.9846,3.9846,0,0,0-1.4842.2631,3.1907,3.1907,0,0,0-1.862,1.9025,4.2806,4.2806,0,0,0-.2564,1.5179,4.2247,4.2247,0,0,0,.2564,1.5112,3.2682,3.2682,0,0,0,.7287,1.1535,3.1811,3.1811,0,0,0,1.1333.7355,4.08,4.08,0,0,0,1.4842.2562,4.1374,4.1374,0,0,0,1.4909-.2562,3.173,3.173,0,0,0,1.14-.7355,3.2762,3.2762,0,0,0,.7285-1.1535,4.2291,4.2291,0,0,0,.2564-1.5112,4.285,4.285,0,0,0-.2564-1.5179A3.268,3.268,0,0,0,45.0507,38.25Zm-1.012,3.4946a2.1754,2.1754,0,0,1-.2765.715,1.4559,1.4559,0,0,1-.5263.506,1.6223,1.6223,0,0,1-.8162.1889,1.584,1.584,0,0,1-.81-.1889,1.469,1.469,0,0,1-.5194-.506,2.1669,2.1669,0,0,1-.2767-.715,4.081,4.081,0,0,1-.0809-.8163,4.1829,4.1829,0,0,1,.0809-.823,2.0961,2.0961,0,0,1,.2767-.7152,1.4731,1.4731,0,0,1,1.329-.7016,1.58,1.58,0,0,1,.8162.1956,1.5373,1.5373,0,0,1,.5263.506,2.104,2.104,0,0,1,.2765.7152,4.183,4.183,0,0,1,.0811.823A4.081,4.081,0,0,1,44.0387,41.7449Z"/>
    <rect x="47.3443" y="34.776" width="1.9159" height="9.6336"/>
    <path d="M56.8024,38.25a3.2573,3.2573,0,0,0-1.14-.7421,4.0392,4.0392,0,0,0-1.4909-.2631,3.9853,3.9853,0,0,0-1.4842.2631,3.1907,3.1907,0,0,0-1.862,1.9025,4.2806,4.2806,0,0,0-.2562,1.5179,4.2247,4.2247,0,0,0,.2562,1.5112,3.2739,3.2739,0,0,0,.7287,1.1535,3.182,3.182,0,0,0,1.1333.7355,4.081,4.081,0,0,0,1.4842.2562,4.1363,4.1363,0,0,0,1.4909-.2562,3.173,3.173,0,0,0,1.14-.7355,3.2762,3.2762,0,0,0,.7285-1.1535,4.2291,4.2291,0,0,0,.2564-1.5112,4.285,4.285,0,0,0-.2564-1.5179A3.268,3.268,0,0,0,56.8024,38.25ZM55.79,41.7449a2.1754,2.1754,0,0,1-.2765.715,1.4564,1.4564,0,0,1-.5262.506,1.6219,1.6219,0,0,1-.8163.1889,1.5843,1.5843,0,0,1-.81-.1889,1.4706,1.4706,0,0,1-.5194-.506,2.1713,2.1713,0,0,1-.2767-.715,4.081,4.081,0,0,1-.0809-.8163,4.1829,4.1829,0,0,1,.0809-.823,2.1,2.1,0,0,1,.2767-.7152,1.4731,1.4731,0,0,1,1.329-.7016,1.58,1.58,0,0,1,.8163.1956,1.5378,1.5378,0,0,1,.5262.506,2.104,2.104,0,0,1,.2765.7152,4.183,4.183,0,0,1,.0811.823A4.081,4.081,0,0,1,55.79,41.7449Z"/>
    <path d="M63.9263,38.3651h-.0271a2.085,2.085,0,0,0-.87-.8636,2.699,2.699,0,0,0-1.2077-.2564,2.8155,2.8155,0,0,0-1.2885.2835,2.77,2.77,0,0,0-.9377.7622,3.4032,3.4032,0,0,0-.5733,1.1064,4.3468,4.3468,0,0,0-.1957,1.3021,5.2971,5.2971,0,0,0,.1686,1.3558,3.1438,3.1438,0,0,0,.5331,1.12,2.5577,2.5577,0,0,0,.9309.7556,3.0455,3.0455,0,0,0,1.3493.2765,2.8614,2.8614,0,0,0,1.2074-.2631,1.8955,1.8955,0,0,0,.8837-.8162h.0271v.9174a1.9068,1.9068,0,0,1-.3576,1.2279,1.3909,1.3909,0,0,1-1.1805.4857,1.8893,1.8893,0,0,1-.904-.2092,1.0928,1.0928,0,0,1-.5262-.7488H59.0555A2.0147,2.0147,0,0,0,59.386,45.82a2.3889,2.3889,0,0,0,.7288.6948,3.3283,3.3283,0,0,0,.9713.3981,4.4737,4.4737,0,0,0,1.0457.1281,4.7113,4.7113,0,0,0,1.9159-.3239,2.9343,2.9343,0,0,0,1.0929-.7893,2.3632,2.3632,0,0,0,.4924-1.0051,4.6838,4.6838,0,0,0,.1148-.958v-6.53H63.9263Zm-.1012,3.191a1.9139,1.9139,0,0,1-.3036.6138,1.4927,1.4927,0,0,1-.5127.4317,1.5246,1.5246,0,0,1-.715.1619,1.3547,1.3547,0,0,1-.7421-.1888,1.496,1.496,0,0,1-.4791-.4857,2.0188,2.0188,0,0,1-.2562-.668,3.7969,3.7969,0,0,1-.0743-.7488,3.133,3.133,0,0,1,.0876-.7489,1.8475,1.8475,0,0,1,.2835-.6341,1.4576,1.4576,0,0,1,.4857-.4385,1.4047,1.4047,0,0,1,.6949-.1619,1.5761,1.5761,0,0,1,.7825.1755,1.4007,1.4007,0,0,1,.4992.4721,2.0385,2.0385,0,0,1,.27.6815,3.9608,3.9608,0,0,1,.081.8162A2.5413,2.5413,0,0,1,63.8251,41.5561Z"/>
    <path d="M70.1462,42.21h-.0271l-1.5785-4.7762H66.5032l2.4422,6.5438a1.1511,1.1511,0,0,1,.0809.4317.9569.9569,0,0,1-.1821.5668.7456.7456,0,0,1-.56.2968,4.0163,4.0163,0,0,1-.5666-.0135q-.2834-.0272-.5532-.054v1.5786q.2967.0268.5869.0472t.5869.02a2.7794,2.7794,0,0,0,1.5381-.3643,2.3605,2.3605,0,0,0,.8636-1.2143l2.9143-7.8391H71.6708Z"/>
    <path d="M85.42,41.01a5.0049,5.0049,0,0,0,.2968-1.2548h-1.66a4.392,4.392,0,0,1-.1215.5869,2.6251,2.6251,0,0,1-.2293.56l-1.2413-1.5248a4.1636,4.1636,0,0,0,1.221-.9714,2.1342,2.1342,0,0,0,.4924-1.43,2.2672,2.2672,0,0,0-.2089-.9984,2.0928,2.0928,0,0,0-.5668-.7218,2.4793,2.4793,0,0,0-.8365-.4386,3.4716,3.4716,0,0,0-1.0321-.1485,2.873,2.873,0,0,0-.9377.1552,2.5433,2.5433,0,0,0-.8029.4453,2.2105,2.2105,0,0,0-.56.6948,1.9389,1.9389,0,0,0-.2091.9041,2.2374,2.2374,0,0,0,.2631,1.1064,6.2568,6.2568,0,0,0,.6544.9445,6.1315,6.1315,0,0,0-.81.4721,3.7969,3.7969,0,0,0-.6948.614,2.72,2.72,0,0,0-.4789.769,2.4308,2.4308,0,0,0-.1755.9377,2.9171,2.9171,0,0,0,.2428,1.2212,2.6738,2.6738,0,0,0,.6612.904,2.7816,2.7816,0,0,0,.9917.56,3.8792,3.8792,0,0,0,1.221.1889,3.6863,3.6863,0,0,0,1.4775-.2833,4.11,4.11,0,0,0,1.2346-.85l.7825.958h2.3477l-1.9564-2.28A4.1811,4.1811,0,0,0,85.42,41.01ZM81.021,36.186a.866.866,0,0,1,.6072-.236.8311.8311,0,0,1,.6138.27.895.895,0,0,1,.2631.6477,1.1274,1.1274,0,0,1-.29.8229,3.8258,3.8258,0,0,1-.6949.5532q-.27-.337-.5128-.661a1.2684,1.2684,0,0,1-.2428-.7827A.7963.7963,0,0,1,81.021,36.186Zm.8568,6.5978a1.6807,1.6807,0,0,1-.8973.2361,1.3686,1.3686,0,0,1-.52-.1012,1.4893,1.4893,0,0,1-.4385-.27,1.2885,1.2885,0,0,1-.3036-.4046,1.1132,1.1132,0,0,1-.1145-.4925,1.2481,1.2481,0,0,1,.1145-.54,1.7336,1.7336,0,0,1,.3036-.4453,2.0534,2.0534,0,0,1,.4317-.3506,3.75,3.75,0,0,1,.4993-.2564L82.6,42.17A3.2485,3.2485,0,0,1,81.8778,42.7838Z"/>
    <polygon points="98.386 34.776 90.493 34.776 90.493 36.557 93.38 36.557 93.38 44.41 95.499 44.41 95.499 36.557 98.386 36.557 98.386 34.776"/>
    <path d="M103.6679,38.5135a3.0984,3.0984,0,0,0-1.0861-.9244,3.3181,3.3181,0,0,0-1.5517-.344,3.6115,3.6115,0,0,0-1.45.2835,3.3707,3.3707,0,0,0-1.8552,1.9429,4.0665,4.0665,0,0,0-.2564,1.4571,4.2445,4.2445,0,0,0,.25,1.4841,3.3649,3.3649,0,0,0,.7084,1.16,3.0841,3.0841,0,0,0,1.12.7489,3.9859,3.9859,0,0,0,1.4841.263,3.6541,3.6541,0,0,0,2.024-.54,3.2,3.2,0,0,0,1.2412-1.7944h-1.6866a1.2029,1.2029,0,0,1-.5126.6138,1.9644,1.9644,0,0,1-2.24-.1281,1.9361,1.9361,0,0,1-.4724-1.3492h5.0328a4.9343,4.9343,0,0,0-.1349-1.5517A3.8036,3.8036,0,0,0,103.6679,38.5135ZM99.384,40.1729a2.1941,2.1941,0,0,1,.0879-.4586,1.4049,1.4049,0,0,1,.2564-.4858,1.4526,1.4526,0,0,1,.4856-.3845,1.67,1.67,0,0,1,.7623-.1552,1.3456,1.3456,0,0,1,1.0456.3779,2.2133,2.2133,0,0,1,.4791,1.1062Z"/>
    <rect x="105.6177" y="34.776" width="1.916" height="9.6336"/>
    <path d="M114.9208,38.5135a3.1,3.1,0,0,0-1.0861-.9244,3.3187,3.3187,0,0,0-1.5517-.344,3.6115,3.6115,0,0,0-1.45.2835,3.37,3.37,0,0,0-1.8553,1.9429,4.0687,4.0687,0,0,0-.2564,1.4571,4.2445,4.2445,0,0,0,.25,1.4841,3.3679,3.3679,0,0,0,.7084,1.16,3.0849,3.0849,0,0,0,1.12.7489,3.9861,3.9861,0,0,0,1.4842.263,3.6543,3.6543,0,0,0,2.024-.54,3.2,3.2,0,0,0,1.2411-1.7944h-1.6865a1.2034,1.2034,0,0,1-.5126.6138,1.9645,1.9645,0,0,1-2.24-.1281,1.9366,1.9366,0,0,1-.4723-1.3492H115.67a4.9343,4.9343,0,0,0-.1348-1.5517A3.8036,3.8036,0,0,0,114.9208,38.5135Zm-4.2839,1.6594a2.1869,2.1869,0,0,1,.0878-.4586,1.4066,1.4066,0,0,1,.2564-.4858,1.4531,1.4531,0,0,1,.4857-.3845,1.67,1.67,0,0,1,.7622-.1552,1.3458,1.3458,0,0,1,1.0457.3779,2.2142,2.2142,0,0,1,.4791,1.1062Z"/>
    <path d="M121.1674,42.77a1.4038,1.4038,0,0,1-1.0592.3845,1.3523,1.3523,0,0,1-.7556-.2024,1.5107,1.5107,0,0,1-.4925-.5194,2.3807,2.3807,0,0,1-.2632-.7084,3.7927,3.7927,0,0,1-.0808-.769,3.9566,3.9566,0,0,1,.0808-.7892,2.3356,2.3356,0,0,1,.2767-.7288,1.6607,1.6607,0,0,1,.506-.54,1.3461,1.3461,0,0,1,.769-.2092,1.2849,1.2849,0,0,1,1.4168,1.2009h1.8754a2.5474,2.5474,0,0,0-1.0592-1.99,3.1919,3.1919,0,0,0-1.0253-.4925,4.3776,4.3776,0,0,0-1.1941-.1619,3.8048,3.8048,0,0,0-1.5113.2835,3.1775,3.1775,0,0,0-1.12.7892,3.3794,3.3794,0,0,0-.6948,1.2009A4.6421,4.6421,0,0,0,116.6,41.023a3.906,3.906,0,0,0,.2562,1.4369,3.3475,3.3475,0,0,0,.7152,1.1268,3.1824,3.1824,0,0,0,1.1132.7353,3.8183,3.8183,0,0,0,1.4369.263,3.4837,3.4837,0,0,0,2.28-.7286,3.1611,3.1611,0,0,0,1.0794-2.1182h-1.8485A1.82,1.82,0,0,1,121.1674,42.77Z"/>
    <path d="M130.5919,38.25a3.2577,3.2577,0,0,0-1.14-.7421,4.0388,4.0388,0,0,0-1.4909-.2631,3.9848,3.9848,0,0,0-1.4841.2631,3.1905,3.1905,0,0,0-1.8621,1.9025,4.2828,4.2828,0,0,0-.2562,1.5179,4.2269,4.2269,0,0,0,.2562,1.5112,3.2753,3.2753,0,0,0,.7287,1.1535,3.1824,3.1824,0,0,0,1.1334.7355,4.08,4.08,0,0,0,1.4841.2562,4.1359,4.1359,0,0,0,1.4909-.2562,3.1734,3.1734,0,0,0,1.14-.7355A3.2776,3.2776,0,0,0,131.32,42.44a4.2313,4.2313,0,0,0,.2564-1.5112,4.2873,4.2873,0,0,0-.2564-1.5179A3.2694,3.2694,0,0,0,130.5919,38.25ZM129.58,41.7449a2.1732,2.1732,0,0,1-.2765.715,1.4569,1.4569,0,0,1-.5261.506,1.6223,1.6223,0,0,1-.8164.1889,1.5848,1.5848,0,0,1-.81-.1889,1.4712,1.4712,0,0,1-.5193-.506,2.1691,2.1691,0,0,1-.2767-.715,4.081,4.081,0,0,1-.0809-.8163,4.1829,4.1829,0,0,1,.0809-.823,2.0981,2.0981,0,0,1,.2767-.7152,1.4728,1.4728,0,0,1,1.3289-.7016,1.58,1.58,0,0,1,.8164.1956,1.5384,1.5384,0,0,1,.5261.506,2.102,2.102,0,0,1,.2765.7152,4.183,4.183,0,0,1,.0811.823A4.081,4.081,0,0,1,129.58,41.7449Z"/>
    <path d="M142.8292,37.8118a2.0679,2.0679,0,0,0-.81-.4317,3.726,3.726,0,0,0-1.0253-.135,2.2434,2.2434,0,0,0-1.2616.3508,2.9736,2.9736,0,0,0-.8433.81,1.6971,1.6971,0,0,0-.83-.904,2.81,2.81,0,0,0-1.2076-.2564,2.47,2.47,0,0,0-1.221.2968,2.7287,2.7287,0,0,0-.9108.8367h-.0269v-.9445h-1.8081V44.41h1.9161V40.362a1.9684,1.9684,0,0,1,.1484-.83,1.34,1.34,0,0,1,.3574-.4857,1.1863,1.1863,0,0,1,.4319-.2293,1.4347,1.4347,0,0,1,.3574-.0608,1.2729,1.2729,0,0,1,.6949.1552.8622.8622,0,0,1,.3374.4116,1.724,1.724,0,0,1,.1146.56q.0133.3036.0135.614V44.41h1.9159V40.5238a4.3174,4.3174,0,0,1,.0474-.6409,1.6194,1.6194,0,0,1,.1888-.5666,1.1244,1.1244,0,0,1,.3913-.4048,1.2257,1.2257,0,0,1,.6544-.1552,1.2947,1.2947,0,0,1,.6409.1349.9016.9016,0,0,1,.3576.3644,1.4094,1.4094,0,0,1,.1484.54q.0266.31.0269.6612V44.41h1.9158V39.7412a3.148,3.148,0,0,0-.1888-1.1536A1.9828,1.9828,0,0,0,142.8292,37.8118Z"/>
    <path d="M155.067,37.8118a2.0679,2.0679,0,0,0-.81-.4317,3.7262,3.7262,0,0,0-1.0254-.135,2.2434,2.2434,0,0,0-1.2616.3508,2.9736,2.9736,0,0,0-.8433.81,1.6966,1.6966,0,0,0-.83-.904,2.81,2.81,0,0,0-1.2076-.2564,2.47,2.47,0,0,0-1.221.2968,2.7287,2.7287,0,0,0-.9108.8367h-.0269v-.9445H145.123V44.41h1.916V40.362a1.9682,1.9682,0,0,1,.1485-.83,1.3389,1.3389,0,0,1,.3574-.4857,1.1859,1.1859,0,0,1,.4318-.2293,1.4361,1.4361,0,0,1,.3575-.0608,1.2727,1.2727,0,0,1,.6948.1552.8624.8624,0,0,1,.3375.4116,1.7239,1.7239,0,0,1,.1145.56q.0135.3036.0136.614V44.41H151.41V40.5238a4.3309,4.3309,0,0,1,.0474-.6409,1.62,1.62,0,0,1,.1889-.5666,1.1233,1.1233,0,0,1,.3912-.4048,1.226,1.226,0,0,1,.6545-.1552,1.294,1.294,0,0,1,.6408.1349.901.901,0,0,1,.3576.3644,1.4094,1.4094,0,0,1,.1484.54q.0267.31.0269.6612V44.41h1.9159V39.7412a3.1479,3.1479,0,0,0-.1889-1.1536A1.9837,1.9837,0,0,0,155.067,37.8118Z"/>
    <path d="M161.9342,41.0905a2.5884,2.5884,0,0,1-.3508,1.5314,1.3277,1.3277,0,0,1-1.1334.4655,1.0449,1.0449,0,0,1-.958-.4251,2.4425,2.4425,0,0,1-.27-1.2885v-3.94h-1.9161v4.2905a5.6189,5.6189,0,0,0,.1148,1.1806,2.2408,2.2408,0,0,0,.398.904,1.8192,1.8192,0,0,0,.7757.5735,3.3527,3.3527,0,0,0,1.2617.2023,2.7877,2.7877,0,0,0,1.1873-.27,2.1568,2.1568,0,0,0,.9445-.8769h.04V44.41H163.85V37.4341h-1.9158Z"/>
    <path d="M171.3519,38.0346a1.8717,1.8717,0,0,0-.776-.58,3.2557,3.2557,0,0,0-1.2614-.2092,2.7322,2.7322,0,0,0-1.1873.2767,2.1977,2.1977,0,0,0-.9445.8837h-.04v-.9714h-1.8217V44.41h1.9161V40.7532a2.5854,2.5854,0,0,1,.3508-1.5313,1.3269,1.3269,0,0,1,1.1333-.4656,1.0451,1.0451,0,0,1,.9579.425,2.4447,2.4447,0,0,1,.27,1.2885v3.94h1.9159V40.119a5.6355,5.6355,0,0,0-.1146-1.1806A2.2471,2.2471,0,0,0,171.3519,38.0346Z"/>
    <rect x="173.3891" y="34.776" width="1.916" height="1.5786"/>
    <rect x="173.3891" y="37.4341" width="1.916" height="6.9755"/>
    <path d="M181.1809,42.77a1.4038,1.4038,0,0,1-1.0592.3845,1.3528,1.3528,0,0,1-.7556-.2024,1.5116,1.5116,0,0,1-.4925-.5194,2.3806,2.3806,0,0,1-.2631-.7084,3.7858,3.7858,0,0,1-.0809-.769,3.95,3.95,0,0,1,.0809-.7892,2.3331,2.3331,0,0,1,.2767-.7288,1.66,1.66,0,0,1,.506-.54,1.3461,1.3461,0,0,1,.769-.2092A1.2849,1.2849,0,0,1,181.579,39.89h1.8754a2.5474,2.5474,0,0,0-1.0592-1.99,3.1924,3.1924,0,0,0-1.0254-.4925,4.3771,4.3771,0,0,0-1.1941-.1619,3.8043,3.8043,0,0,0-1.5112.2835,3.1766,3.1766,0,0,0-1.12.7892,3.38,3.38,0,0,0-.6949,1.2009,4.6448,4.6448,0,0,0-.2361,1.5043A3.904,3.904,0,0,0,176.87,42.46a3.3473,3.3473,0,0,0,.7151,1.1268,3.1833,3.1833,0,0,0,1.1132.7353,3.8184,3.8184,0,0,0,1.437.263,3.4841,3.4841,0,0,0,2.28-.7286,3.1614,3.1614,0,0,0,1.0793-2.1182h-1.8485A1.8189,1.8189,0,0,1,181.1809,42.77Z"/>
    <path d="M190.8479,42.858V39.2285a1.6779,1.6779,0,0,0-.2833-1.0186,1.9422,1.9422,0,0,0-.7285-.6,3.2717,3.2717,0,0,0-.9851-.29,7.829,7.829,0,0,0-1.0659-.0743,5.88,5.88,0,0,0-1.1536.1147,3.294,3.294,0,0,0-1.0321.3845,2.2985,2.2985,0,0,0-.7557.7152,2.2234,2.2234,0,0,0-.3372,1.12h1.9158A1.0833,1.0833,0,0,1,186.8,38.77a1.4532,1.4532,0,0,1,.8905-.2429,3.2267,3.2267,0,0,1,.4789.0337,1.0628,1.0628,0,0,1,.3913.1349.7452.7452,0,0,1,.27.2833,1.0177,1.0177,0,0,1,.1012.4926.5183.5183,0,0,1-.1755.4518,1.2931,1.2931,0,0,1-.5126.2363,5.1,5.1,0,0,1-.742.1213q-.4186.0406-.85.108a8.1516,8.1516,0,0,0-.8568.1821,2.4258,2.4258,0,0,0-.7556.344,1.75,1.75,0,0,0-.54.614,2.032,2.032,0,0,0-.2092.9781,2.1888,2.1888,0,0,0,.1823.9312,1.7582,1.7582,0,0,0,.5058.6476,2.1325,2.1325,0,0,0,.7556.3777,3.4287,3.4287,0,0,0,.931.1214,4.3346,4.3346,0,0,0,1.2684-.1889,2.494,2.494,0,0,0,1.0793-.661,2.8331,2.8331,0,0,0,.0472.344,2.7,2.7,0,0,0,.0877.3305h1.9429a1.6288,1.6288,0,0,1-.1888-.6476A7.2635,7.2635,0,0,1,190.8479,42.858Zm-1.9159-1.1469a3.6621,3.6621,0,0,1-.0338.4319,1.448,1.448,0,0,1-.1821.5329,1.2653,1.2653,0,0,1-.4588.452,1.6923,1.6923,0,0,1-.877.1888,2.4173,2.4173,0,0,1-.4452-.04,1.0852,1.0852,0,0,1-.3777-.1416.7226.7226,0,0,1-.2564-.2767.8991.8991,0,0,1-.0944-.4317.9317.9317,0,0,1,.0944-.4453.8636.8636,0,0,1,.25-.29,1.2593,1.2593,0,0,1,.3642-.1823,3.4543,3.4543,0,0,1,.4251-.1078q.2292-.0406.4588-.0675t.4385-.0676a3.06,3.06,0,0,0,.3912-.1012.8566.8566,0,0,0,.3036-.1685Z"/>
    <path d="M194.7742,35.3428h-1.9158v2.0913h-1.16v1.2818h1.16v4.1152a1.7817,1.7817,0,0,0,.1753.85,1.25,1.25,0,0,0,.4791.4992,1.9848,1.9848,0,0,0,.7016.2361,5.5881,5.5881,0,0,0,.8433.0608q.2832,0,.58-.0136a4.6031,4.6031,0,0,0,.54-.054V42.9255a2.6169,2.6169,0,0,1-.2833.04c-.0992.0092-.2024.0136-.31.0136a.6489.6489,0,0,1-.81-.81v-3.454h1.4033V37.4341h-1.4033Z"/>
    <rect x="197.1624" y="37.4341" width="1.916" height="6.9755"/>
    <rect x="197.1624" y="34.776" width="1.916" height="1.5786"/>
    <path d="M206.6205,38.25a3.2563,3.2563,0,0,0-1.14-.7421,4.0392,4.0392,0,0,0-1.4909-.2631,3.9857,3.9857,0,0,0-1.4842.2631,3.1907,3.1907,0,0,0-1.862,1.9025,4.2828,4.2828,0,0,0-.2562,1.5179,4.2269,4.2269,0,0,0,.2562,1.5112,3.2753,3.2753,0,0,0,.7287,1.1535,3.1829,3.1829,0,0,0,1.1333.7355,4.0814,4.0814,0,0,0,1.4842.2562,4.1363,4.1363,0,0,0,1.4909-.2562,3.1722,3.1722,0,0,0,1.14-.7355,3.2779,3.2779,0,0,0,.7286-1.1535,4.2313,4.2313,0,0,0,.2563-1.5112,4.2873,4.2873,0,0,0-.2563-1.5179A3.27,3.27,0,0,0,206.6205,38.25Zm-1.012,3.4946a2.1754,2.1754,0,0,1-.2765.715,1.4569,1.4569,0,0,1-.5261.506,1.6226,1.6226,0,0,1-.8164.1889,1.5845,1.5845,0,0,1-.81-.1889,1.4706,1.4706,0,0,1-.5194-.506,2.1713,2.1713,0,0,1-.2767-.715,4.081,4.081,0,0,1-.0809-.8163,4.1829,4.1829,0,0,1,.0809-.823,2.1,2.1,0,0,1,.2767-.7152,1.4731,1.4731,0,0,1,1.329-.7016,1.58,1.58,0,0,1,.8164.1956,1.5384,1.5384,0,0,1,.5261.506,2.104,2.104,0,0,1,.2765.7152,4.183,4.183,0,0,1,.0811.823A4.081,4.081,0,0,1,205.6085,41.7449Z"/>
    <path d="M214.8911,38.0346a1.8707,1.8707,0,0,0-.7759-.58,3.2557,3.2557,0,0,0-1.2614-.2092,2.7319,2.7319,0,0,0-1.1873.2767,2.1977,2.1977,0,0,0-.9445.8837h-.0405v-.9714H208.86V44.41h1.9161V40.7532a2.5854,2.5854,0,0,1,.3508-1.5313,1.3269,1.3269,0,0,1,1.1333-.4656,1.0451,1.0451,0,0,1,.9579.425,2.4457,2.4457,0,0,1,.27,1.2885v3.94h1.9158V40.119a5.6358,5.6358,0,0,0-.1145-1.1806A2.2458,2.2458,0,0,0,214.8911,38.0346Z"/>
    <path d="M222.3119,40.8005a2.69,2.69,0,0,0-.7084-.3576,8.0984,8.0984,0,0,0-.8164-.2293q-.4046-.0945-.796-.1755a6.1914,6.1914,0,0,1-.6949-.1821,1.4585,1.4585,0,0,1-.4925-.2632.525.525,0,0,1-.1888-.4181.5172.5172,0,0,1,.108-.3443.7119.7119,0,0,1,.2631-.1956,1.1768,1.1768,0,0,1,.3441-.0877,3.3017,3.3017,0,0,1,.3508-.02,1.9146,1.9146,0,0,1,.8905.1956.8386.8386,0,0,1,.4181.7489h1.8216a2.2911,2.2911,0,0,0-.3306-1.0728,2.1864,2.1864,0,0,0-.6949-.6813,2.9164,2.9164,0,0,0-.9513-.3643,5.5218,5.5218,0,0,0-1.0994-.108,5.9952,5.9952,0,0,0-1.1065.1012,3.046,3.046,0,0,0-.9713.3508,1.9373,1.9373,0,0,0-.6949.6815,2.0978,2.0978,0,0,0-.2632,1.1063,1.49,1.49,0,0,0,.1889.7759,1.6358,1.6358,0,0,0,.4992.5261,2.775,2.775,0,0,0,.7084.3373q.3978.1284.8162.2227a11.4944,11.4944,0,0,1,1.5989.4317q.5734.216.5734.6477a.7089.7089,0,0,1-.1214.4249.9168.9168,0,0,1-.3036.27,1.4432,1.4432,0,0,1-.4048.1484,2.0335,2.0335,0,0,1-.4249.0472,2.1814,2.1814,0,0,1-.5465-.0675,1.4113,1.4113,0,0,1-.4655-.209,1.1181,1.1181,0,0,1-.3305-.3643,1.048,1.048,0,0,1-.1283-.5329h-1.8214a2.3425,2.3425,0,0,0,.3171,1.167,2.3109,2.3109,0,0,0,.7421.7488,3.131,3.131,0,0,0,1.0321.4048,5.7839,5.7839,0,0,0,1.1874.1214,5.9488,5.9488,0,0,0,1.167-.1146,2.9573,2.9573,0,0,0,1.0187-.398A2.1194,2.1194,0,0,0,223,42.17a1.6249,1.6249,0,0,0-.1889-.8162A1.73,1.73,0,0,0,222.3119,40.8005Z"/>
  </g>
</svg>
