<svg xmlns="http://www.w3.org/2000/svg" width="236.2602" height="30" viewBox="0 0 236.2602 30">
  <title>nyc-doitt-logo</title>
  <g>
    <polygon points="65.625 0 60 5.625 60 1.875 58.125 0 50.625 0 48.75 1.875 48.75 5.625 45 9.375 41.25 5.625 41.25 1.875 39.375 0 31.875 0 30 1.875 28.125 0 20.625 0 18.75 1.875 18.75 9.375 9.375 0 1.876 0 0 1.875 0 28.125 1.876 30 9.375 30 11.25 28.125 11.25 20.625 20.625 30 28.125 30 30 28.125 30 13.125 39.375 22.5 39.375 28.125 41.25 30 48.75 30 50.625 28.125 50.625 22.5 60 13.125 60 24.375 65.625 30 84.375 30 90 24.375 90 18.75 88.125 16.5 78.75 16.5 78.75 18.75 71.25 18.75 71.25 11.25 78.75 11.25 78.75 13.5 88.125 13.5 90 11.25 90 5.625 84.375 0 65.625 0"/>
    <path d="M88.4907,1.4092h.22l.3667.6065h.264l-.3972-.6233a.3626.3626,0,0,0,.37-.3877c0-.2878-.174-.4078-.517-.4078H88.258V2.0157h.2327Zm0-.6138h.2818c.14,0,.3082.0208.3082.1925,0,.2058-.154.2223-.3287.2223h-.2613Z"/>
    <path d="M88.7449,2.5645A1.243,1.243,0,0,0,90,1.2823a1.2588,1.2588,0,1,0-2.5172,0,1.234,1.234,0,0,0,1.262,1.2822m0-2.3412a.9941.9941,0,0,1,.9807,1.059.9868.9868,0,1,1-1.9682,0,.9955.9955,0,0,1,.9875-1.059"/>
    <g>
      <path d="M111.26,0h-15V30h15a15,15,0,0,0,0-30Zm0,26.25H100.01V3.75h11.25a11.25,11.25,0,0,1,0,22.5Z"/>
      <path d="M111.26,6.25h-8.75v17.5h8.75a8.75,8.75,0,0,0,0-17.5Zm0,13.75h-5V10h5a5,5,0,0,1,0,10Z"/>
      <path d="M143.76,6.25A8.75,8.75,0,1,0,152.51,15,8.76,8.76,0,0,0,143.76,6.25Zm0,13.75a5,5,0,1,1,5-5A5,5,0,0,1,143.76,20Z"/>
      <path d="M143.76,0a15,15,0,1,0,15,15A15,15,0,0,0,143.76,0Zm0,26.25A11.25,11.25,0,1,1,155.01,15,11.2627,11.2627,0,0,1,143.76,26.25Z"/>
      <rect x="167.5103" width="3.7499" height="30"/>
      <rect x="161.2602" width="3.7501" height="30"/>
      <rect x="173.7602" width="30" height="3.75"/>
      <polygon points="190.01 30 193.76 30 193.76 10 203.76 10 203.76 6.25 190.01 6.25 190.01 30"/>
      <polygon points="173.76 10 183.76 10 183.76 30 187.51 30 187.51 6.25 173.76 6.25 173.76 10"/>
      <rect x="206.2602" width="30" height="3.75"/>
      <polygon points="222.51 30 226.26 30 226.26 10 236.26 10 236.26 6.25 222.51 6.25 222.51 30"/>
      <polygon points="206.26 10 216.26 10 216.26 30 220.01 30 220.01 6.25 206.26 6.25 206.26 10"/>
    </g>
  </g>
</svg>
