<svg xmlns="http://www.w3.org/2000/svg" width="175" height="30" viewBox="0 0 175 30">
  <title>nyc-doitt-logo-v2</title>
  <g>
    <g>
      <g>
        <path d="M29.2453,15.6877h.11l.1833.3029h.132l-.1986-.3113a.1812.1812,0,0,0,.1848-.1936c0-.1438-.087-.2037-.2585-.2037h-.2693v.7086h.1164Zm0-.3065h.1409c.07,0,.1541.01.1541.0961,0,.1028-.077.111-.1644.111h-.1306Z"/>
        <path d="M29.3724,16.2648a.6405.6405,0,1,0-.631-.6405A.6213.6213,0,0,0,29.3724,16.2648Zm0-1.1694a.53.53,0,1,1-.4938.5289A.4967.4967,0,0,1,29.3724,15.0954Z"/>
        <polygon points="17.804 15.016 14.991 17.826 14.991 27.191 17.804 30 27.179 30 29.991 27.191 29.991 24.381 29.054 23.257 24.366 23.257 24.366 24.381 20.616 24.381 20.616 20.635 24.366 20.635 24.366 21.759 29.054 21.759 29.991 20.635 29.991 17.826 27.179 15.016 17.804 15.016"/>
      </g>
      <polygon points="30 0.937 29.063 0 25.313 0 24.375 0.937 24.375 2.81 22.5 4.683 20.625 2.81 20.625 0.937 19.688 0 15.938 0 15 0.937 15 0.937 15 6.556 19.688 11.238 19.688 14.048 20.625 14.984 24.375 14.984 25.313 14.048 25.313 11.238 30 6.556 30 0.937"/>
      <polygon points="15 0.937 14.063 0 10.313 0 9.375 0.937 9.375 4.683 4.688 0 0.938 0 0 0.937 0 14.048 0.938 14.984 4.688 14.984 5.625 14.048 5.625 10.302 10.313 14.984 14.063 14.984 15 14.048 15 0.937"/>
    </g>
    <path d="M50,0H35V29.9678H50A14.9839,14.9839,0,1,0,50,0Zm0,26.2218H38.75V3.746H50a11.2379,11.2379,0,1,1,0,22.4758Z"/>
    <path d="M50,6.2433H41.25V23.7245H50A8.7406,8.7406,0,1,0,50,6.2433Zm0,13.7352H45V9.9893h5a4.9946,4.9946,0,1,1,0,9.9892Z"/>
    <path d="M82.5,6.2433a8.7406,8.7406,0,1,0,8.75,8.7406A8.7553,8.7553,0,0,0,82.5,6.2433Zm0,13.7352a4.9946,4.9946,0,1,1,5-4.9946A4.9972,4.9972,0,0,1,82.5,19.9785Z"/>
    <path d="M82.5,0a14.9839,14.9839,0,1,0,15,14.9839A14.9919,14.9919,0,0,0,82.5,0Zm0,26.2218A11.2379,11.2379,0,1,1,93.75,14.9839,11.2567,11.2567,0,0,1,82.5,26.2218Z"/>
    <rect x="106.2501" width="3.7499" height="29.9678"/>
    <rect x="100" width="3.7501" height="29.9678"/>
    <rect x="112.5" width="30" height="3.746"/>
    <polygon points="128.75 29.968 132.5 29.968 132.5 9.989 142.5 9.989 142.5 6.243 128.75 6.243 128.75 29.968"/>
    <polygon points="112.5 9.989 122.5 9.989 122.5 29.968 126.25 29.968 126.25 6.243 112.5 6.243 112.5 9.989"/>
    <rect x="145" width="30" height="3.746"/>
    <polygon points="161.25 29.968 165 29.968 165 9.989 175 9.989 175 6.243 161.25 6.243 161.25 29.968"/>
    <polygon points="145 9.989 155 9.989 155 29.968 158.75 29.968 158.75 6.243 145 6.243 145 9.989"/>
  </g>
</svg>
