<svg id="Layer_1" data-name="Layer 1" xmlns="http://www.w3.org/2000/svg" preserveAspectRatio="xMidYMin meet" viewBox="0 0 90 30"><defs><style>.cls-1{fill:#fff;}</style></defs><title>nyc-white-90x30</title><polygon class="cls-1" points="88.125 13.102 90 11.25 90 5.625 84.375 0 65.625 0 60 5.625 60 1.875 58.125 0 50.625 0 48.75 1.875 48.75 5.625 45 9.375 41.25 5.625 41.25 1.875 39.375 0 31.875 0 30 1.875 28.125 0 20.625 0 18.75 1.875 18.75 9.375 9.375 0 1.875 0 0 1.875 0 28.125 1.875 30 9.375 30 11.25 28.125 11.25 20.625 20.625 30 28.125 30 30 28.125 30 13.125 39.375 22.5 39.375 28.125 41.25 30 48.75 30 50.625 28.125 50.625 22.5 60 13.125 60 24.375 65.625 30 84.375 30 90 24.375 90 18.75 88.125 16.873 78.75 16.873 78.75 18.75 71.25 18.75 71.25 11.25 78.75 11.25 78.75 13.102 88.125 13.102"/><path class="cls-1" d="M88.66471,1.2652c.17475,0,.32878-.01668.32878-.22222,0-.17172-.16817-.19243-.30807-.19243H88.4036V1.2652Zm-.26111.80556h-.23283V.65206h.53839c.34292,0,.51716.1197.51716.40758a.36277.36277,0,0,1-.36969.38788l.39748.62324H88.99l-.36667-.60658H88.4036ZM88.65765.27833a.99532.99532,0,0,0-.98739,1.0591.98678.98678,0,1,0,1.96819,0,.99412.99412,0,0,0-.9808-1.0591m0,2.3414a1.23437,1.23437,0,0,1-1.26214-1.2823,1.25881,1.25881,0,1,1,2.51718,0,1.243,1.243,0,0,1-1.255,1.2823"/></svg>