<svg id="Artwork" xmlns="http://www.w3.org/2000/svg" width="45" height="15" viewBox="0 0 45 15"><defs><style>.cls-1{fill:#fff;}</style></defs><title>nyc-white-15</title><polygon class="cls-1" points="44.061 6.551 44.998 5.624 44.998 2.812 42.185 0 32.811 0 29.999 2.812 29.999 0.939 29.061 0 25.311 0 24.374 0.939 24.374 2.812 22.5 4.688 20.624 2.812 20.624 0.939 19.686 0 15.937 0 14.999 0.939 14.062 0 10.313 0 9.375 0.939 9.375 4.688 4.688 0 0.938 0 0 0.939 0 14.062 0.938 15 4.688 15 5.625 14.062 5.625 10.312 10.313 15 14.062 15 14.999 14.062 14.999 6.562 19.686 11.249 19.686 14.062 20.624 15 24.374 15 25.311 14.062 25.311 11.249 29.999 6.562 29.999 12.186 32.811 15 42.185 15 44.998 12.186 44.998 9.375 44.061 8.436 39.373 8.436 39.373 9.375 35.623 9.375 35.623 5.624 39.373 5.624 39.373 6.551 44.061 6.551"/></svg>