<svg xmlns="http://www.w3.org/2000/svg" width="180" height="60" viewBox="0 0 180 60">
  <title>nyc-logo-reverse-placeholder</title>
  <polygon points="176.2 26.2 180 22.5 180 11.3 168.8 0 131.2 0 120 11.3 120 3.8 116.2 0 101.2 0 97.5 3.8 97.5 11.3 90 18.8 82.5 11.3 82.5 3.8 78.8 0 63.8 0 60 3.8 56.2 0 41.2 0 37.5 3.8 37.5 18.8 18.8 0 3.8 0 0 3.8 0 56.2 3.8 60 18.8 60 22.5 56.2 22.5 41.2 41.2 60 56.2 60 60 56.2 60 26.2 78.8 45 78.8 56.2 82.5 60 97.5 60 101.2 56.2 101.2 45 120 26.2 120 48.8 131.2 60 168.8 60 180 48.8 180 37.5 176.2 33.7 157.5 33.7 157.5 37.5 142.5 37.5 142.5 22.5 157.5 22.5 157.5 26.2 176.2 26.2" fill="#fff"/>
  <path d="M177.3,2.5c.3,0,.7,0,.7-.4,0-.3-.3-.4-.6-.4h-.6v.8Zm-.5,1.6h-.5V1.3h1.1c.7,0,1,.2,1,.8a.849.849,0,0,1-.7.8h-.1l.8,1.2H178l-.7-1.2h-.4Zm.5-3.5a2.006,2.006,0,0,0-2,2v.1a1.956,1.956,0,0,0,3.9.3V2.7A2.005,2.005,0,0,0,177.3.6h0m0,4.6a2.393,2.393,0,0,1-2.5-2.4V2.6A2.628,2.628,0,0,1,177.3,0a2.559,2.559,0,0,1,2.6,2.5v.1a2.543,2.543,0,0,1-2.4,2.6h-.2" fill="#fff"/>
</svg>
