<svg id="Artwork" xmlns="http://www.w3.org/2000/svg" width="90.04122" height="30.00254" viewBox="0 0 90.04122 30.00254"><title>nyc-logo</title><polygon points="88.123 13.102 89.997 11.249 89.997 5.624 84.371 0 65.622 0 59.998 5.624 59.998 1.877 58.122 0 50.622 0 48.748 1.877 48.748 5.624 44.999 9.376 41.249 5.624 41.249 1.877 39.372 0 31.874 0 29.998 1.877 28.123 0 20.626 0 18.75 1.877 18.75 9.376 9.376 0 1.875 0 0 1.877 0 28.123 1.875 30 9.376 30 11.25 28.123 11.25 20.624 20.626 30 28.123 30 29.998 28.123 29.998 13.124 39.372 22.498 39.372 28.123 41.249 30 48.748 30 50.622 28.123 50.622 22.498 59.998 13.124 59.998 24.373 65.622 30 84.371 30 89.997 24.373 89.997 18.749 88.123 16.872 78.747 16.872 78.747 18.749 71.246 18.749 71.246 11.249 78.747 11.249 78.747 13.102 88.123 13.102"/></svg>