<svg xmlns="http://www.w3.org/2000/svg" width="180" height="60" viewBox="0 0 180 60">
  <title>NYC Bubble Logo</title>
  <g>
    <polygon points="131.25 0 120.001 11.25 120.001 3.75 116.25 0 101.25 0 97.5 3.75 97.5 11.25 90.001 18.75 82.5 11.25 82.5 3.75 78.75 0 63.75 0 60.001 3.75 56.25 0 41.25 0 37.501 3.75 37.501 18.75 18.751 0 3.751 0 0 3.75 0 56.25 3.751 60 18.751 60 22.501 56.25 22.501 41.25 41.25 60 56.25 60 60.001 56.25 60.001 26.25 78.75 45 78.75 56.25 82.5 60 97.5 60 101.25 56.25 101.25 45 120.001 26.25 120.001 48.75 131.25 60 168.75 60 180 48.75 180 37.5 176.25 33 157.5 33 157.5 37.5 142.5 37.5 142.5 22.5 157.5 22.5 157.5 27 176.25 27 180 22.5 180 11.25 168.75 0 131.25 0"/>
    <path d="M176.9816,2.8181h.44l.7331,1.2131h.5284l-.7947-1.2465a.7252.7252,0,0,0,.7392-.7755c0-.5755-.3484-.8152-1.0343-.8152h-1.077V4.0312h.4658Zm0-1.2273h.5636c.28,0,.6165.0416.6165.3851,0,.4114-.3082.4443-.6577.4443h-.5224Z"/>
    <path d="M177.49,5.1292A2.4859,2.4859,0,0,0,180,2.5646a2.5176,2.5176,0,1,0-5.0343,0A2.4683,2.4683,0,0,0,177.49,5.1292Zm0-4.6826a1.9883,1.9883,0,0,1,1.9617,2.118,1.9736,1.9736,0,1,1-3.9364,0A1.9906,1.9906,0,0,1,177.49.4466Z"/>
  </g>
</svg>
