<svg xmlns="http://www.w3.org/2000/svg" width="400" height="300" viewBox="0 0 400 300">
  <title>color-contrast-pass</title>
  <rect width="400" height="300" fill="#25caa4"/>
  <g>
    <g>
      <path d="M159.4985,161.0366H111.4976l-9.6,37.2007H65.8965L115.0977,41.7539h42.2412L206.54,198.2373H169.0991Zm-7.2-27.6006-3.84-14.4c-4.32-15.6-8.4-34.081-12.72-50.4013h-.96c-3.6,16.5605-7.92,34.8008-12.24,50.4013l-3.84,14.4Z" fill="#262345"/>
      <path d="M282.8579,121.6758c-.72-10.5606-6-17.2808-18.72-17.2808-10.0806,0-20.1606,4.08-31.6807,10.8l-12.48-23.28c15.12-9.1206,32.1606-15.6005,50.8813-15.6005,30.4805,0,47.2808,17.28,47.2808,53.7612v68.1616h-28.8l-2.64-12.24h-.72c-10.08,8.88-21.36,15.12-34.8008,15.12-21.6005,0-35.2807-15.84-35.2807-36C215.8965,140.1558,235.8169,126.4756,282.8579,121.6758Zm-19.68,52.081c8.16,0,13.44-3.84,19.68-10.08V142.7959c-25.2007,3.36-33.3608,10.5605-33.3608,19.6807C249.4971,170.1567,254.7773,173.7568,263.1777,173.7568Z" fill="#262345"/>
    </g>
    <g>
      <path d="M125.9653,241.3418H115.707v-4.4634h15.91v3.2393c-5.291,6.4072-6.0469,10.6909-6.4429,19.6177h-5.3276C120.2783,252.14,121.646,247.3169,125.9653,241.3418Z" fill="#262345"/>
      <path d="M138.53,253.5083a3.3321,3.3321,0,1,1-3.2036,3.3472A3.2007,3.2007,0,0,1,138.53,253.5083Z" fill="#262345"/>
      <path d="M146.45,255.4517h4.9678v-13.21h-4.2837v-3.2759a15.9234,15.9234,0,0,0,5.6875-2.0874h3.8872v18.5733h4.2837v4.2837H146.45Z" fill="#262345"/>
      <path d="M181.08,254.2642h-2.6275v5.4712H173.521v-5.4712h-9.8984v-3.6358l8.35-13.75h6.48v13.354H181.08Zm-7.5591-4.0318v-3.7075c0-1.4756.144-3.6714.2163-5.1113h-.144c-.5762,1.26-1.2242,2.5556-1.8721,3.8515l-3.0234,4.9673Z" fill="#262345"/>
      <path d="M192.0259,249.7285a30.2645,30.2645,0,0,1,4.7514-16.45l3.3116,1.3677a31.98,31.98,0,0,0,0,30.164l-3.3116,1.3682A30.2657,30.2657,0,0,1,192.0259,249.7285Z" fill="#262345"/>
      <path d="M204.5537,236.2661h8.5669c5.1113,0,9.1787,1.8721,9.1787,7.5591,0,5.5073-4.2114,7.9551-9.1787,7.9551h-3.24v7.9551h-5.3272Zm8.2427,11.3027c2.9155,0,4.3193-1.2959,4.3193-3.7436s-1.5117-3.3477-4.3193-3.3477h-2.9155v7.0913Z" fill="#262345"/>
      <path d="M234.1084,248.2529a2.4848,2.4848,0,0,0-2.8076-2.5918,9.6084,9.6084,0,0,0-4.7515,1.62l-1.8716-3.4912a14.7546,14.7546,0,0,1,7.6309-2.34c4.5718,0,7.0913,2.5918,7.0913,8.063v10.2227h-4.3193l-.396-1.836h-.1079a7.8564,7.8564,0,0,1-5.22,2.2681,5.1307,5.1307,0,0,1-5.291-5.3994C224.0659,251.0244,227.0532,248.9727,234.1084,248.2529Zm-2.9517,7.8111a3.9765,3.9765,0,0,0,2.9517-1.5122V251.42c-3.7793.5039-5.0034,1.584-5.0034,2.9517C229.105,255.5239,229.897,256.064,231.1567,256.064Z" fill="#262345"/>
      <path d="M244.73,254.3721a7.6948,7.6948,0,0,0,4.6074,1.8716c1.5835,0,2.2676-.5757,2.2676-1.5118,0-1.188-1.8-1.7275-3.6357-2.4477-2.16-.8277-4.7154-2.3037-4.7154-5.2554,0-3.3115,2.7-5.5791,6.8394-5.5791a10.2684,10.2684,0,0,1,6.2988,2.2676l-2.3755,3.1675a6.5876,6.5876,0,0,0-3.78-1.5118c-1.3676,0-2.0156.504-2.0156,1.4039,0,1.1518,1.6558,1.5839,3.4917,2.268,2.2676.8277,4.8232,2.0874,4.8232,5.3633,0,3.2393-2.5556,5.7593-7.3427,5.7593a11.5265,11.5265,0,0,1-6.8394-2.4839Z" fill="#262345"/>
      <path d="M260.6768,254.3721a7.6948,7.6948,0,0,0,4.6074,1.8716c1.5835,0,2.2676-.5757,2.2676-1.5118,0-1.188-1.8-1.7275-3.6358-2.4477-2.16-.8277-4.7153-2.3037-4.7153-5.2554,0-3.3115,2.7-5.5791,6.8393-5.5791a10.2687,10.2687,0,0,1,6.2989,2.2676l-2.3755,3.1675a6.5879,6.5879,0,0,0-3.78-1.5118c-1.3677,0-2.0156.504-2.0156,1.4039,0,1.1518,1.6557,1.5839,3.4917,2.268,2.2675.8277,4.8232,2.0874,4.8232,5.3633,0,3.2393-2.5557,5.7593-7.3428,5.7593a11.5265,11.5265,0,0,1-6.8393-2.4839Z" fill="#262345"/>
      <path d="M279.0366,249.7285a30.5059,30.5059,0,0,0-3.8159-15.082l3.312-1.3677a30.8511,30.8511,0,0,1,0,32.9l-3.312-1.3682A30.5059,30.5059,0,0,0,279.0366,249.7285Z" fill="#262345"/>
    </g>
  </g>
</svg>
